<?xml version="1.0" encoding="UTF-8"?>
<svg width="20px" height="22px" viewBox="0 0 20 22" version="1.1" xmlns="http://www.w3.org/2000/svg" xmlns:xlink="http://www.w3.org/1999/xlink">
    <title>sq2</title>
    <g id="页面-1" stroke="none" stroke-width="1" fill="none" fill-rule="evenodd">
        <g id="BSV首页" transform="translate(-1871.000000, -773.000000)">
            <g id="编组-22" transform="translate(1578.000000, 755.000000)">
                <g id="悬浮" transform="translate(273.000000, 0.000000)">
                    <g id="sq2" transform="translate(17.000000, 17.000000)">
                        <rect id="矩形" x="0" y="0" width="26" height="26"></rect>
                        <path d="M9.63908898,10.1521056 C9.8840238,10.0205498 10.2345013,9.95355924 10.6992286,10.039549 C11.1842328,10.1292907 11.7612815,10.3701365 12.4507882,10.8182541 C12.6486258,10.9468308 12.82711,11.0738765 12.9876498,11.1992312 C13.15083,11.0758789 13.331541,10.9508964 13.5311357,10.8243672 C14.2451445,10.3717353 14.8381457,10.1292139 15.3331075,10.0391539 C15.8029294,9.95366824 16.1534178,10.019245 16.3937943,10.1503949 C16.613875,10.2712694 16.7714065,10.4664377 16.8692323,10.7044378 C16.9977363,11.0170749 17.0286317,11.3942225 16.9758122,11.8052971 C16.8700381,12.633502 16.4520615,13.4824425 15.8280254,14.2046137 C15.1286425,15.0099793 14.2060113,15.6050933 13.1526288,15.9399002 C11.7978245,15.6171708 10.8580917,15.0386786 10.1555345,14.2353545 C9.53789306,13.528574 9.12754245,12.6928141 9.02443616,11.8690065 C8.9701994,11.4433448 9.00330552,11.0525298 9.13789059,10.7290551 C9.24155465,10.4798989 9.40874876,10.2765549 9.63908898,10.1521056 Z" id="路径" stroke="#333333" stroke-width="2" fill-rule="nonzero"></path>
                        <polyline id="路径-5" stroke="#333333" stroke-width="2" stroke-linecap="round" stroke-linejoin="round" points="22 22 22 9.40740741 13 2 4 9.40740741 4 22 10.5962733 22 10.5962733 19.1428571 15.6273292 19.1428571 15.6273292 22"></polyline>
                    </g>
                </g>
            </g>
        </g>
    </g>
</svg>