<?xml version="1.0" encoding="UTF-8"?>
<svg width="24.6001301px" height="20px" viewBox="0 0 24.6001301 20" version="1.1" xmlns="http://www.w3.org/2000/svg" xmlns:xlink="http://www.w3.org/1999/xlink">
    <title>微信</title>
    <g id="页面-1" stroke="none" stroke-width="1" fill="none" fill-rule="evenodd">
        <g id="BSV首页h5" transform="translate(-141.000000, -3821.000000)">
            <g id="底部" transform="translate(0.000000, 3740.000000)">
                <g id="icon" transform="translate(68.000000, 76.000000)">
                    <g id="微信" transform="translate(70.000000, 0.000000)">
                        <rect id="矩形" x="0" y="0" width="30" height="30"></rect>
                        <path d="M22.418468,15.0165088 C21.2012763,15.7189917 21.8861419,17.1496216 23.0818296,16.6593465 C24.1265012,16.2310638 23.6679645,14.9569774 22.418468,15.0165088 Z M17.6478657,15.0165088 C16.3926466,15.7146362 17.1283327,17.1527271 18.3113251,16.6593465 C19.3283598,16.2352435 18.8354675,14.9648485 17.6478657,15.0165088 Z M19.8278146,11.5096609 C23.377358,11.4484107 25.6036937,13.056092 26.9046943,15.2693027 C27.4220984,16.1494815 27.8401271,17.7112251 27.441786,19.0289444 C26.8423698,21.011666 25.7345731,21.572625 24.5351745,22.8516333 L25.1986337,25 L22.8608523,23.7046831 C22.7476879,23.6739213 20.7901421,24.0875164 20.3964689,24.1469697 C18.5838846,24.4206035 16.3696973,23.3458342 15.4048112,22.6620623 C12.2251519,20.4087343 11.9456978,15.6396946 15.152076,13.1841588 C16.0300477,12.5117737 17.1027467,12.0031392 18.3429658,11.6993295 L19.8278146,11.5097586 L19.8278146,11.5096609 Z M14.9308447,8.69793255 C14.3900616,8.89473009 13.9168569,8.92392942 13.7303914,9.45617734 C13.4336326,10.3029771 14.3281669,11.0155577 15.1205134,10.8778619 C16.418467,10.6523728 16.3412988,8.77789376 14.9309229,8.69793255 L14.9308447,8.69793255 Z M8.83344109,8.69793255 C8.30947445,8.88982775 7.86257839,8.92523802 7.66447225,9.42453659 C7.33917816,10.2446761 8.21254052,11.0273546 9.05459419,10.8778619 C10.367294,10.6448337 10.3234267,8.78584301 8.83344109,8.69793255 L8.83344109,8.69793255 Z M11.2345235,5.00143554 C15.5388742,4.93026343 20.1105304,7.51281131 20.4912544,11.130519 C19.1117184,10.7390528 17.4134314,11.3391135 16.5105572,11.7307359 C14.0934786,12.7792551 12.7701928,14.5401791 12.2770466,17.5438612 C12.1398586,18.3794305 12.4522035,19.0993743 12.5297818,19.7553727 C11.6505796,19.7906267 10.7415335,19.7938299 9.97074967,19.6290832 L8.67543272,19.3447072 L5.67411387,20.8611968 L6.49548388,18.2389613 C5.02614292,17.3138604 3.79430277,15.8728204 3.24137118,14.037111 C2.39064562,11.2122576 3.94902985,8.45767782 5.42132004,7.27615035 C6.48163617,6.4253662 7.65986286,5.75034436 9.14937967,5.31739366 L11.2345235,5.00145507 L11.2345235,5.00143554 Z" id="形状" fill="#FFF9F9" fill-rule="nonzero"></path>
                    </g>
                </g>
            </g>
        </g>
    </g>
</svg>