<?xml version="1.0" encoding="UTF-8"?>
<svg width="23px" height="22.4002654px" viewBox="0 0 23 22.4002654" version="1.1" xmlns="http://www.w3.org/2000/svg" xmlns:xlink="http://www.w3.org/1999/xlink">
    <title>数据icon</title>
    <defs>
        <polygon id="path-1" points="0 0 24 0 24 24 0 24"></polygon>
    </defs>
    <g id="页面-1" stroke="none" stroke-width="1" fill="none" fill-rule="evenodd">
        <g id="C友会首页" transform="translate(-422.199565, -471.599735)">
            <g id="兴趣小组" transform="translate(360.000000, 440.000000)">
                <g id="数据icon" transform="translate(62.000000, 30.000000)">
                    <mask id="mask-2" fill="white">
                        <use xlink:href="#path-1"></use>
                    </mask>
                    <g id="Clip-4"></g>
                    <g id="编组-4" mask="url(#mask-2)" fill="#FF5100" fill-rule="nonzero" opacity="0.200000003">
                        <g transform="translate(0.199565, 3.599735)">
                            <path d="M16,0 C13.790861,0 12,1.790861 12,4 C12,6.209139 13.790861,8 16,8 C18.209139,8 20,6.209139 20,4 C20,1.790861 18.209139,0 16,0 L16,0 Z" id="路径"></path>
                            <path d="M19.5,9 C17.5670034,9 16,10.5670034 16,12.5 C16,14.4329966 17.5670034,16 19.5,16 C21.4329966,16 23,14.4329966 23,12.5 C23,10.5670034 21.4329966,9 19.5,9 L19.5,9 Z" id="路径备份"></path>
                            <path d="M10,13 C7.790861,13 6,14.790861 6,17 C6,19.209139 7.790861,21 10,21 C12.209139,21 14,19.209139 14,17 C14,14.790861 12.209139,13 10,13 L10,13 Z" id="路径备份-2"></path>
                            <path d="M3.5,5 C1.56700338,5 0,6.56700338 0,8.5 C0,10.4329966 1.56700338,12 3.5,12 C5.43299662,12 7,10.4329966 7,8.5 C7,6.56700338 5.43299662,5 3.5,5 L3.5,5 Z" id="路径备份-3"></path>
                        </g>
                    </g>
                    <polyline id="路径-2" stroke="#333333" stroke-width="2" mask="url(#mask-2)" points="4.43118717 11.4993759 10.1995653 19.5997346 15.1995653 5.59973457 19.6995653 14.0997346"></polyline>
                    <path d="M15.1995653,2.59973457 C16.0279924,2.59973457 16.7779924,2.93552101 17.3208856,3.47841423 C17.8637788,4.02130745 18.1995653,4.77130745 18.1995653,5.59973457 C18.1995653,6.4281617 17.8637788,7.1781617 17.3208856,7.72105492 C16.7779924,8.26394814 16.0279924,8.59973457 15.1995653,8.59973457 C14.3711382,8.59973457 13.6211382,8.26394814 13.0782449,7.72105492 C12.5353517,7.1781617 12.1995653,6.4281617 12.1995653,5.59973457 C12.1995653,4.77130745 12.5353517,4.02130745 13.0782449,3.47841423 C13.6211382,2.93552101 14.3711382,2.59973457 15.1995653,2.59973457 Z" id="路径" stroke="#333333" stroke-width="2" fill="#FFFFFF" fill-rule="nonzero" mask="url(#mask-2)"></path>
                    <path d="M19.6995653,11.5997346 C20.3899212,11.5997346 21.0149212,11.8795566 21.4673322,12.3319676 C21.9197432,12.7843786 22.1995653,13.4093786 22.1995653,14.0997346 C22.1995653,14.7900905 21.9197432,15.4150905 21.4673322,15.8675015 C21.0149212,16.3199125 20.3899212,16.5997346 19.6995653,16.5997346 C19.0092093,16.5997346 18.3842093,16.3199125 17.9317983,15.8675015 C17.4793873,15.4150905 17.1995653,14.7900905 17.1995653,14.0997346 C17.1995653,13.4093786 17.4793873,12.7843786 17.9317983,12.3319676 C18.3842093,11.8795566 19.0092093,11.5997346 19.6995653,11.5997346 Z" id="路径备份" stroke="#333333" stroke-width="2" fill="#FFFFFF" fill-rule="nonzero" mask="url(#mask-2)"></path>
                    <path d="M10.1995653,15.5997346 C11.0279924,15.5997346 11.7779924,15.935521 12.3208856,16.4784142 C12.8637788,17.0213074 13.1995653,17.7713074 13.1995653,18.5997346 C13.1995653,19.4281617 12.8637788,20.1781617 12.3208856,20.7210549 C11.7779924,21.2639481 11.0279924,21.5997346 10.1995653,21.5997346 C9.37113815,21.5997346 8.62113815,21.2639481 8.07824493,20.7210549 C7.53535172,20.1781617 7.19956528,19.4281617 7.19956528,18.5997346 C7.19956528,17.7713074 7.53535172,17.0213074 8.07824493,16.4784142 C8.62113815,15.935521 9.37113815,15.5997346 10.1995653,15.5997346 Z" id="路径备份-2" stroke="#333333" stroke-width="2" fill="#FFFFFF" fill-rule="nonzero" mask="url(#mask-2)"></path>
                    <path d="M3.69956528,7.59973457 C4.38992122,7.59973457 5.01492122,7.8795566 5.46733223,8.33196762 C5.91974325,8.78437864 6.19956528,9.40937864 6.19956528,10.0997346 C6.19956528,10.7900905 5.91974325,11.4150905 5.46733223,11.8675015 C5.01492122,12.3199125 4.38992122,12.5997346 3.69956528,12.5997346 C3.00920934,12.5997346 2.38420934,12.3199125 1.93179833,11.8675015 C1.47938731,11.4150905 1.19956528,10.7900905 1.19956528,10.0997346 C1.19956528,9.40937864 1.47938731,8.78437864 1.93179833,8.33196762 C2.38420934,7.8795566 3.00920934,7.59973457 3.69956528,7.59973457 Z" id="路径备份-3" stroke="#333333" stroke-width="2" fill="#FFFFFF" fill-rule="nonzero" mask="url(#mask-2)"></path>
                </g>
            </g>
        </g>
    </g>
</svg>