<?xml version="1.0" encoding="UTF-8"?>
<svg width="9px" height="14px" viewBox="0 0 9 14" version="1.1" xmlns="http://www.w3.org/2000/svg" xmlns:xlink="http://www.w3.org/1999/xlink">
    <title>路径</title>
    <g id="页面-1" stroke="none" stroke-width="1" fill="none" fill-rule="evenodd">
        <g id="C友会首页" transform="translate(-419.000000, -239.000000)" fill="#FFFFFF" fill-rule="nonzero">
            <g id="banner1" transform="translate(362.000000, 70.000000)">
                <g id="左符号" transform="translate(62.000000, 176.000000) scale(-1, 1) translate(-62.000000, -176.000000) translate(36.000000, 150.000000)">
                    <path d="M30.5431687,32.5701883 C31.1522771,31.9971248 31.1522771,31.0679973 30.5431687,30.4949339 L25.7654924,25.9999848 L30.5431687,21.505052 C31.1522771,20.9319885 31.1522771,20.002861 30.5431687,19.4297976 C29.9340602,18.8567341 28.9464916,18.8567341 28.3373831,19.4297976 L22.4568313,24.9623738 C21.8477229,25.5354372 21.8477229,26.4645648 22.4568313,27.0376282 L28.3374003,32.5702045 C28.9465088,33.1432679 29.9340774,33.1432679 30.5431859,32.5701883 L30.5431687,32.5701883 Z" id="路径" transform="translate(26.500000, 26.000000) scale(-1, 1) translate(-26.500000, -26.000000) "></path>
                </g>
            </g>
        </g>
    </g>
</svg>