<?xml version="1.0" encoding="UTF-8"?>
<svg width="24.9679878px" height="20px" viewBox="0 0 24.9679878 20" version="1.1" xmlns="http://www.w3.org/2000/svg" xmlns:xlink="http://www.w3.org/1999/xlink">
    <title>微博</title>
    <g id="页面-1" stroke="none" stroke-width="1" fill="none" fill-rule="evenodd">
        <g id="BSV首页h5" transform="translate(-70.000000, -3821.000000)">
            <g id="底部" transform="translate(0.000000, 3740.000000)">
                <g id="微博" transform="translate(68.000000, 76.000000)">
                    <rect id="矩形" x="0" y="0" width="30" height="30"></rect>
                    <path d="M10.2933305,8.28128604 C13.7812926,7.0921448 14.1880142,9.10537557 14.1880142,10.2949163 C14.0029373,11.3045544 13.6552091,11.8978201 14.9648628,11.4904493 C14.9648628,11.4904493 18.3931656,9.89657394 19.8043466,11.3105468 C20.9423734,12.4522289 19.9924064,14.0225611 19.9924064,14.0225611 C19.9924064,14.0225611 19.520033,14.5466355 20.4909074,14.7355398 C21.4655105,14.9304099 24.5288531,16.3534111 22.8430798,19.9489587 C21.1580256,23.5385406 15.5984494,25.2858459 11.4798571,24.9618881 C7.56501181,24.6533239 2.53152897,23.3496363 2.01214725,18.6004486 C2.01214725,18.6004486 1.73603679,16.4491815 3.81659986,13.6656856 C3.81659986,13.6656856 6.80907052,9.47684569 10.2933305,8.28128604 Z M19.1879387,18.1335542 C19.1879387,15.4006333 15.8761046,13.7105613 11.7851047,13.8994657 C7.69562298,14.08837 4.39044727,16.2845927 4.39044727,19.023133 C4.39044727,21.7587438 7.69562295,23.8142403 11.7851047,23.622726 C15.876078,23.4364316 19.1879387,20.8687921 19.1879387,18.1335542 Z M10.9686785,15.7032584 C15.0880166,15.2240598 15.8223314,19.1671083 14.5701263,20.7883619 C13.3179213,22.4088431 10.8403579,23.2000415 8.43443884,21.8933977 C7.38921851,21.3247046 7.33316638,20.2558194 7.33132155,20.0742265 L7.33146183,20.0476854 C7.33146183,20.0476854 6.85685118,16.1858127 10.9686785,15.7032584 Z M10.0151559,18.7240606 L9.86274519,18.7328387 C9.09484542,18.8132955 8.54486171,19.4847275 8.54486171,20.125905 C8.54486171,20.7700654 9.16425259,21.2137362 9.93140661,21.1235586 C10.6970692,21.0363904 11.3194429,20.4434976 11.3194429,19.8023201 C11.3194429,19.1581864 10.7447965,18.6487067 9.86274519,18.7328387 Z M12.5708757,18.2682347 C12.4335528,18.0401007 12.1164,17.9745581 11.8119514,18.202053 C11.5492643,18.3939135 11.4955443,18.759418 11.6388064,18.9871791 C11.7761292,19.2210125 12.0955459,19.247938 12.3559692,19.053068 C12.6104532,18.852179 12.7089442,18.5016686 12.5708757,18.2682347 Z M18.637955,5.19447247 C19.0566085,5.11404231 20.5505666,4.82001949 22.0043081,5.16118184 C24.6042262,5.7693883 28.1728614,8.28916924 26.5676015,13.6518632 C26.4504136,14.4179206 26.0713111,14.4796813 25.6190727,14.4796813 C25.0788102,14.4796813 24.6430047,14.1389185 24.6430047,13.5964677 C24.6430047,13.1266703 24.8370304,12.649336 24.8370304,12.649336 C24.8937334,12.4518293 25.3504729,11.2226328 24.5355382,9.38594894 C23.0400352,6.8692041 20.0311316,6.83253114 19.6751737,6.97618686 C19.3162593,7.11685973 18.7879021,7.18791525 18.7879021,7.18791525 C18.2431386,7.18791525 17.8073065,6.74427104 17.8073065,6.20485633 C17.8073065,5.75221033 18.1087987,5.36918167 18.5222586,5.25207857 C18.5222586,5.25207857 18.5312075,5.23713775 18.5454033,5.23412827 C18.5752329,5.22816258 18.6058615,5.19748196 18.637955,5.19447247 Z M19.4625577,8.67707167 C19.4625577,8.67707167 23.6654986,7.89785791 23.1632689,12.4252502 C23.1632689,12.4522022 23.1602859,12.4731354 23.1542934,12.497078 C23.1072584,12.8176534 22.825182,13.0634182 22.4938868,13.0634182 C22.119232,13.0634182 21.8155292,12.7638025 21.8155558,12.3893762 C21.8155558,12.3893762 22.4819283,9.36312494 19.4625577,10.0312279 C19.0894477,10.0312279 18.7909117,9.72860277 18.7909117,9.35713263 C18.7909117,8.97969679 19.0894477,8.67707167 19.4625577,8.67707167 Z" id="形状结合" fill="#FFFFFF" fill-rule="nonzero"></path>
                </g>
            </g>
        </g>
    </g>
</svg>