<?xml version="1.0" encoding="UTF-8"?>
<svg width="20px" height="22px" viewBox="0 0 20 22" version="1.1" xmlns="http://www.w3.org/2000/svg" xmlns:xlink="http://www.w3.org/1999/xlink">
    <title>社区</title>
    <g id="页面-1" stroke="none" stroke-width="1" fill="none" fill-rule="evenodd">
        <g id="BSV首页" transform="translate(-1871.000000, -1113.000000)" stroke="#FFFFFF" stroke-width="2">
            <g id="编组-22" transform="translate(1578.000000, 755.000000)">
                <g id="悬浮2" transform="translate(273.000000, 340.000000)">
                    <g id="社区" transform="translate(21.000000, 19.000000)">
                        <path d="M5.63908898,8.15210558 C5.8840238,8.02054984 6.23450133,7.95355924 6.69922865,8.03954903 C7.18423283,8.12929071 7.76128145,8.37013649 8.45078819,8.81825411 C8.64862579,8.94683083 8.82711003,9.07387653 8.98764977,9.19923121 C9.15083,9.07587891 9.33154099,8.95089639 9.53113573,8.8243672 C10.2451445,8.37173528 10.8381457,8.1292139 11.3331075,8.03915392 C11.8029294,7.95366824 12.1534178,8.01924503 12.3937943,8.15039491 C12.613875,8.27126942 12.7714065,8.46643772 12.8692323,8.70443784 C12.9977363,9.01707493 13.0286317,9.39422253 12.9758122,9.80529707 C12.8700381,10.633502 12.4520615,11.4824425 11.8280254,12.2046137 C11.1286425,13.0099793 10.2060113,13.6050933 9.15262878,13.9399002 C7.79782452,13.6171708 6.8580917,13.0386786 6.15553455,12.2353545 C5.53789306,11.528574 5.12754245,10.6928141 5.02443616,9.86900647 C4.9701994,9.44334479 5.00330552,9.05252982 5.13789059,8.7290551 C5.24155465,8.47989889 5.40874876,8.27655487 5.63908898,8.15210558 Z" id="路径" fill-rule="nonzero"></path>
                        <polyline id="路径-5" stroke-linecap="round" stroke-linejoin="round" points="18 20 18 7.04232804 9 0 0 7.04232804 0 20 6.59627329 20 6.59627329 17.1428571 11.6273292 17.1428571 11.6273292 20"></polyline>
                    </g>
                </g>
            </g>
        </g>
    </g>
</svg>