<?xml version="1.0" encoding="UTF-8"?>
<svg width="80.982272px" height="21.8732405px" viewBox="0 0 80.982272 21.8732405" version="1.1" xmlns="http://www.w3.org/2000/svg" xmlns:xlink="http://www.w3.org/1999/xlink">
    <title>logo1</title>
    <g id="页面-1" stroke="none" stroke-width="1" fill="none" fill-rule="evenodd">
        <g id="C友会首页" transform="translate(-451.000000, -14.000000)">
            <g id="csdnlogo组件" transform="translate(372.000000, 14.000000)">
                <g id="logo1" transform="translate(79.000000, 0.000000)">
                    <path d="M42.594536,16.1607454 C42.4647337,16.0378659 42.2880295,15.9698495 42.1168635,15.9727917 C41.9413708,15.9762531 41.7824928,16.0491154 41.6694783,16.1780524 C40.6577127,17.3360619 38.8944783,17.4610182 38.183681,17.4610182 C36.8640243,17.4610182 35.8543356,17.1268206 35.182652,16.467598 C34.5443708,15.8414318 34.209654,14.9193163 34.187501,13.7268659 C34.1364455,10.962077 35.7018611,8.10227291 38.4100562,8.10227291 C39.7039254,8.10227291 40.708076,9.02006166 41.0798297,9.41448756 C41.2085936,9.55155878 41.3877208,9.63047858 41.5708285,9.63099779 C41.7551478,9.63584374 41.9245831,9.55398176 42.0401936,9.41812203 L42.1455931,9.2936849 C42.3619303,9.03875319 42.4593685,8.70974765 42.4200817,8.36706959 C42.3802756,8.02162242 42.2070328,7.70577018 41.9320251,7.47835656 C41.2684757,6.92886018 40.1404073,6.27396435 38.5358779,6.27396435 C36.8688703,6.27396435 35.2222849,7.0408363 34.0180658,8.37814605 C32.7534453,9.78329915 32.0777811,11.6962388 32.1160295,13.7647682 C32.1468359,15.4238145 32.6913133,16.8192757 33.6911371,17.8002349 C34.7652078,18.8540565 36.3389308,19.4111679 38.2425247,19.4111679 C40.4759895,19.4111679 41.8603742,18.7500416 42.6281115,18.1955262 C42.9254453,17.9809197 43.103534,17.6425684 43.1168604,17.2673532 C43.1300137,16.8905804 42.9758086,16.5212496 42.6935318,16.2543761 L42.594536,16.1607454 Z" id="Fill-1" fill="#FF5100"></path>
                    <path d="M50.9069537,11.4691886 C50.4000324,11.2961189 49.8970918,11.1538556 49.4535141,11.0285531 C47.5770922,10.4982675 47.3614473,10.010557 47.3834272,9.64486067 C47.4275599,8.9067183 48.4332681,7.90810599 50.1366203,8.0332354 C51.3718189,8.12409701 52.2044574,9.06871156 52.5909221,9.6235731 C52.6951101,9.77327841 52.856238,9.87712024 53.0327691,9.90844586 C53.2098194,9.94011762 53.3901581,9.89685019 53.5274024,9.78972003 L53.6490704,9.69470475 C53.9318663,9.47386779 54.0978402,9.13690103 54.1044168,8.76999322 C54.1108204,8.40100856 53.9560961,8.03877363 53.6797037,7.77639993 C53.0284423,7.15836795 51.9201038,6.39703423 50.3377273,6.2805583 C49.085741,6.187966 47.852273,6.52233671 46.8645641,7.22067305 C45.9356989,7.87729958 45.350031,8.79231921 45.2974178,9.66822509 C45.1683078,11.8279622 47.3650818,12.4489363 48.9694381,12.902206 C49.4054007,13.0254316 49.842921,13.1614644 50.3285546,13.3137658 C52.6501119,14.0411778 52.7169168,14.7736089 52.550943,15.8935431 C52.3830653,17.0264575 51.1331558,17.5918763 49.120528,17.4432094 C47.025519,17.2888312 46.1641509,16.2272215 45.8372222,15.607978 C45.7518989,15.4463309 45.6030589,15.3234514 45.4289508,15.2706651 C45.2538042,15.2178789 45.0668889,15.2396856 44.9163182,15.3307203 L44.7332105,15.4414849 C44.4282616,15.6259773 44.2243855,15.9369836 44.1738491,16.2948918 C44.1231397,16.6527999 44.2304429,17.0235153 44.4682407,17.3125417 C45.1631157,18.1566028 46.5187708,19.2015978 49.0298394,19.3864362 C49.3351344,19.4087622 49.6241609,19.4196656 49.8986495,19.4196656 C53.4290988,19.4194926 54.48967,17.6391243 54.7404481,16.0802853 C54.9278826,14.9165645 54.6963153,13.9866608 54.0315545,13.2372689 C53.4232144,12.5513936 52.4303134,11.9894362 50.9069537,11.4691886" id="Fill-3" fill="#3D3935"></path>
                    <path d="M65.7966959,12.432737 C65.8307906,14.2977364 65.3070816,15.6568529 64.2395876,16.4727036 C62.537793,17.7740148 59.9853607,17.6184252 58.7892758,17.4533166 C58.6539353,17.4346251 58.5545933,17.3091496 58.5672273,17.1750205 L59.3745976,8.52430344 C59.3839434,8.42496141 59.4540366,8.34344557 59.5504364,8.32008116 C61.5853903,7.82856315 63.1681129,7.97757618 64.2567215,8.76365887 C65.191298,9.43845772 65.7669279,10.8102084 65.7966959,12.432737 M65.5878007,7.39069674 L65.5878007,7.39069674 C64.3692168,6.51236789 62.7523994,6.14857533 60.7832121,6.30831869 C59.3339262,6.4260061 58.1887239,6.80260582 58.0644598,6.84448869 L58.052518,6.84864237 C57.7117437,6.96338759 57.4798303,7.25950989 57.446947,7.62105255 L56.4896984,18.2098044 C56.4609688,18.5287719 56.6767867,18.8349323 56.9917736,18.9218133 L57.2743965,18.9995216 C57.2868575,19.002983 58.6001106,19.3466994 60.3520954,19.405197 C60.4993777,19.4100429 60.6444102,19.412639 60.787885,19.412639 C62.766245,19.412639 64.3813317,18.9451777 65.5928197,18.0211584 C67.1494088,16.833554 67.9154154,14.9663047 67.8695519,12.4716777 C67.827496,10.1611969 67.0597587,8.45178722 65.5878007,7.39069674" id="Fill-5" fill="#3D3935"></path>
                    <path d="M80.0360766,7.73517472 C79.205515,6.80405961 77.9396831,6.3319254 76.2740601,6.3319254 C74.7804683,6.3319254 73.4229094,6.89180596 72.3104172,7.95947308 L72.3472811,7.56366263 C72.3602613,7.42330308 72.3114556,7.28138591 72.212979,7.17408268 C72.1145023,7.06677945 71.9769119,7.0053397 71.8349947,7.0053397 L71.4332999,7.0053397 C70.8010762,7.0053397 70.2849822,7.47782004 70.2332344,8.10415937 L69.3613091,18.6221257 C69.346079,18.806445 69.4118455,18.9924949 69.5416478,19.1325083 C69.671277,19.2728679 69.852481,19.3529992 70.038531,19.3529992 L70.8258251,19.3529992 C71.066219,19.3529992 71.2640377,19.1736989 71.2861906,18.9360742 L71.8706471,12.6732001 C71.897819,12.3814045 71.9542397,12.0993009 72.0380055,11.8348503 C72.4805448,10.4399084 73.6029019,8.09948649 76.1468538,8.09948649 C77.3038249,8.09948649 78.152905,8.58442786 78.5284663,8.99944906 C79.0374643,9.56261794 78.9678903,10.3566618 78.9666788,10.3675652 L78.2384014,18.7979646 C78.2261135,18.9378049 78.2756114,19.0790298 78.373915,19.1856407 C78.4723917,19.2919056 78.609636,19.3529992 78.7508609,19.3529992 L79.3685467,19.3529992 C79.8427578,19.3529992 80.2311262,18.9990716 80.2724899,18.5298796 L80.9687494,10.6230161 C80.9763645,10.5563843 81.1456266,8.97954604 80.0360766,7.73517472" id="Fill-7" fill="#3D3935"></path>
                    <path d="M17.7248839,14.2800486 C15.8986522,14.2800486 14.41631,12.9223167 14.2136453,11.1275836 L12.7152076,11.1275836 C12.5127161,12.9067404 11.0147976,14.2800486 9.20431522,14.2800486 C7.23772394,14.2800486 5.6614049,12.7193059 5.6614049,10.7373114 C5.6614049,8.75566304 7.25347329,7.19492027 9.20431522,7.19492027 C11.0296816,7.19492027 12.5127161,8.55282533 12.7152076,10.3473853 L14.2136453,10.3473853 C14.41631,8.5684016 15.9145746,7.19492027 17.7248839,7.19492027 C19.691129,7.19492027 21.2676211,8.75566304 21.2676211,10.7373114 C21.2676211,12.7193059 19.6598034,14.2800486 17.7248839,14.2800486 M14.9504031,15.755468 C14.5346897,15.9250764 14.0637669,15.6805288 13.9701362,15.2326244 C13.9003891,14.8987729 14.0869583,14.5505566 14.4028105,14.4217927 C14.8183509,14.2518383 15.2891006,14.4963858 15.3829044,14.9442902 C15.4526515,15.2783148 15.2660823,15.626185 14.9504031,15.755468 M13.4644265,19.7632436 C12.5668869,19.7632436 11.8387826,19.4404686 11.8387826,19.0427544 C11.8387826,18.6441748 12.5668869,18.3213998 13.4644265,18.3213998 C14.3621391,18.3213998 15.0898973,18.6441748 15.0898973,19.0427544 C15.0898973,19.4404686 14.3621391,19.7632436 13.4644265,19.7632436 M11.5855816,15.3620806 C11.4071467,14.9250795 11.6873466,14.4266387 12.179903,14.3705641 C12.4639104,14.3385462 12.7470525,14.4887707 12.8836045,14.740068 C13.1179409,15.1718769 12.8713165,15.6955859 12.3960671,15.7947549 C12.0625617,15.864502 11.7143454,15.6777597 11.5855816,15.3620806 M22.3250772,9.76760172 C22.1303737,7.34099112 20.0265381,5.51804771 17.5921394,5.54816185 C15.632644,5.57204547 14.312122,6.05837139 13.6670911,6.9946786 L13.5442116,7.17207507 C13.5115014,7.22001538 13.4407159,7.22001538 13.4080058,7.17207507 L13.2856455,6.9946786 C12.6413069,6.0606213 11.3252847,5.57394923 9.37184671,5.54833491 C6.92654458,5.51562474 4.80799809,7.35362521 4.62540953,9.79200455 C4.4672238,11.9041475 5.7597085,13.8245291 7.74066456,14.4911937 L7.89296592,14.5425954 C7.93934861,14.5578255 7.96202074,14.6090542 7.94298307,14.6535331 L7.88015876,14.8016808 C7.51688541,15.6545684 7.33256615,16.5363586 7.33256615,17.4214372 C7.33256615,20.3007982 9.28635027,21.6413963 13.4808681,21.6413963 C17.6752129,21.6413963 19.6284778,20.3007982 19.6284778,17.4214372 C19.6284778,16.5354933 19.4445047,15.6528377 19.080366,14.7987386 L19.0175417,14.6511101 C18.998504,14.6066312 19.0211761,14.5555756 19.0668665,14.5399994 L19.2191679,14.4884246 C21.2034123,13.816741 22.4953778,11.8851098 22.3250772,9.76760172" id="Fill-9" fill="#F6B98B"></path>
                    <path d="M19.2193063,14.4883554 L19.0668319,14.5401032 C19.0211415,14.5556795 18.9986424,14.606562 19.017507,14.6510409 L19.0803313,14.7986694 C19.44447,15.6529415 19.6289624,16.5354241 19.6289624,17.421541 C19.6289624,20.300729 17.6751783,21.6415001 13.4808335,21.6415001 C9.28614259,21.6415001 7.33253154,20.300729 7.33253154,17.421541 C7.33253154,16.5362894 7.5168508,15.6544992 7.88012415,14.8016116 L7.94312153,14.6536369 C7.96198613,14.609158 7.93896785,14.5577563 7.89310438,14.5425262 L7.74062995,14.4911245 C5.75967389,13.8244599 4.46736226,11.9040782 4.62537491,9.79210839 C4.80796347,7.35355598 6.92668304,5.51572858 9.37198517,5.54843876 C11.3254231,5.57388001 12.6412723,6.06055207 13.2856108,6.99460937 L13.4079711,7.17217891 C13.4406813,7.21994615 13.5116399,7.21994615 13.5446962,7.17217891 L13.6670565,6.99460937 C14.3120874,6.05830216 15.6326094,5.57197624 17.5922779,5.54809262 C20.0265035,5.51797849 22.1303391,7.34109496 22.3250425,9.76753249 C22.4955162,11.8850406 21.2033777,13.8168448 19.2193063,14.4883554 M15.0315382,1.78590295 C14.9178314,1.28365461 14.9377344,0.835230958 15.0926318,0.490649137 C15.1076889,0.45759282 15.078094,0.420902038 15.04348,0.4319785 C14.4875801,0.606778922 13.9579867,0.959668089 13.3991446,1.51851023 C13.367992,1.05122197 13.3664344,0.554165726 13.5356966,0.0552057108 C13.5466,0.023707021 13.5166589,-0.00779166878 13.4839487,0.00172716605 C12.0909105,0.422113526 11.5910852,1.17254385 11.2691755,1.93128152 C6.68490463,3.09517542 3.10426511,7.7244444 3.10426511,12.5598394 C3.10426511,16.1517285 5.08141364,18.7462167 7.97652398,20.1434086 C9.0848625,21.45995 11.134008,21.8732405 13.4808335,21.8732405 C15.827659,21.8732405 17.8769776,21.45995 18.9849699,20.1437547 C21.8802533,18.7463898 23.8580942,16.1517285 23.8580942,12.5598394 C23.8580942,7.4940886 19.9285461,2.65125157 15.0315382,1.78590295" id="Fill-11" fill="#81312A"></path>
                    <path d="M3.43024193,14.9655778 C3.26824867,14.3984283 3.16509912,13.7956265 3.12477387,13.1599414 C3.12546615,13.1732678 3.12581229,13.1864211 3.12685071,13.1997474 C2.335749,13.0524651 1.73640854,12.359667 1.73640854,11.5259901 C1.73640854,10.58501 2.49895375,9.82229175 3.43993384,9.82229175 C3.45412556,9.82229175 3.46797113,9.82402245 3.48181671,9.82471473 C3.64000244,9.25168087 3.84491699,8.69128111 4.09223363,8.14974594 C4.09223363,8.1493998 4.09223363,8.14922673 4.09257977,8.14870752 C3.8809155,8.10803614 3.66336685,8.08622935 3.43993384,8.08622935 C1.53980134,8.08622935 0,9.62620376 0,11.5259901 C0,13.4226612 1.53512845,14.9603857 3.43024193,14.9655778 L3.43024193,14.9655778" id="Fill-13" fill="#F6B98B"></path>
                    <path d="M23.4889191,8.08621204 C23.2762164,8.08621204 23.0676674,8.10628813 22.865522,8.14349812 C22.8658681,8.1441904 22.8662143,8.14470961 22.8662143,8.14522882 C23.1143962,8.6878024 23.3210415,9.24889445 23.4790542,9.82296673 C23.4826886,9.82279366 23.4854577,9.82227445 23.4889191,9.82227445 C24.4298992,9.82227445 25.1929636,10.5849927 25.1929636,11.5259728 C25.1929636,12.3482271 24.6102379,13.0346216 23.8347124,13.194538 C23.8355778,13.1839808 23.8355778,13.1737697 23.8367893,13.1633855 C23.7957717,13.7973399 23.6931414,14.398238 23.5318404,14.9638298 C23.5314943,14.9640029 23.5314943,14.964349 23.5314943,14.9645221 C25.4112046,14.9421961 26.928853,13.4115675 26.928853,11.5259728 C26.928853,9.62618645 25.3887055,8.08621204 23.4889191,8.08621204" id="Fill-15" fill="#F6B98B"></path>
                    <path d="M19.3612754,10.3968832 C19.3612754,9.87265504 19.0663646,9.41402027 18.6077299,9.21775921 C18.8045101,9.41402027 18.935697,9.67622091 18.935697,9.97113172 C18.935697,10.5606072 18.4440059,11.0521252 17.8545304,11.0521252 C17.3303022,11.0521252 16.9043776,10.691794 16.8057279,10.2329862 L16.8057279,10.364 C16.8057279,11.0850085 17.3957226,11.6743109 18.1163849,11.6743109 C18.7714538,11.7073672 19.3612754,11.1177186 19.3612754,10.3968832" id="Fill-17" fill="#81312A"></path>
                    <path d="M17.8611071,9.55926039 C17.7785528,9.31955882 17.5179098,9.19252564 17.2783813,9.27490683 C17.0388528,9.35728802 16.9114735,9.61845023 16.9940277,9.85780566 C17.076582,10.0971611 17.3375711,10.2245404 17.5770996,10.1421592 C17.8164551,10.059778 17.9436613,9.79878889 17.8611071,9.55926039" id="Fill-19" fill="#FEFEFE"></path>
                    <path d="M18.1163157,11.6747089 C17.3956533,11.6747089 16.8058317,11.0847142 16.8058317,10.3640519 L16.8058317,10.2330381 C16.9043084,10.6916729 17.330233,11.0520041 17.8544612,11.0520041 C18.4441097,11.0520041 18.9356278,10.5606591 18.9356278,9.97101057 C18.9356278,9.67627283 18.804614,9.41389913 18.6078337,9.21781113 C19.0664685,9.41389913 19.3612062,9.87253389 19.3612062,10.3969352 C19.3612062,11.1175975 18.7713846,11.707246 18.1163157,11.6747089 M17.2783121,9.27492414 C17.5178406,9.19254295 17.7786566,9.31957613 17.8610378,9.55927769 C17.9435921,9.79880619 17.8165589,10.0596223 17.5772035,10.1421765 C17.3373288,10.2245577 17.0765128,10.0971784 16.9941316,9.8576499 C16.9114043,9.61846754 17.0387836,9.35713226 17.2783121,9.27492414 M17.985475,8.69323679 C17.0264956,8.69323679 16.2490664,9.47083907 16.2490664,10.4298184 C16.2490664,11.3886247 17.0264956,12.1658808 17.985475,12.1658808 C18.9441082,12.1658808 19.7215374,11.3886247 19.7215374,10.4298184 C19.7215374,9.47083907 18.9441082,8.69323679 17.985475,8.69323679" id="Fill-21" fill="#501E12"></path>
                    <path d="M10.18858,10.4953426 C10.18858,9.97111441 9.86078599,9.51247964 9.43503447,9.31587243 C9.63112247,9.51247964 9.76230932,9.7745072 9.76230932,10.069418 C9.76230932,10.6590666 9.27113744,11.1505846 8.68131582,11.1505846 C8.15743377,11.1505846 7.73133611,10.7902534 7.6330325,10.3312725 L7.6330325,10.4624594 C7.6330325,11.1831217 8.22302719,11.7725972 8.94368952,11.7725972 C9.63112247,11.7725972 10.18858,11.1831217 10.18858,10.4953426" id="Fill-23" fill="#81312A"></path>
                    <path d="M8.75500891,9.56009112 C8.67245465,9.32056262 8.41163858,9.19318331 8.17228315,9.27539143 C7.93258158,9.35811875 7.80520226,9.61893483 7.88758345,9.85846333 C7.97013771,10.0981649 8.23129992,10.2253711 8.47065535,10.14299 C8.71001078,10.0604357 8.83773624,9.79944655 8.75500891,9.56009112" id="Fill-25" fill="#FEFEFE"></path>
                    <path d="M8.9436203,11.7729087 C8.22261182,11.7729087 7.63313634,11.1830871 7.63313634,10.4624247 L7.63313634,10.3312379 C7.73126688,10.7902188 8.15736454,11.1502038 8.68124659,11.1502038 C9.27124128,11.1502038 9.76224009,10.6590319 9.76224009,10.0693834 C9.76224009,9.77447259 9.63122631,9.51244503 9.43513831,9.31583782 C9.86088983,9.51244503 10.1885108,9.9710798 10.1885108,10.495308 C10.1885108,11.1830871 9.63122631,11.7729087 8.9436203,11.7729087 M8.17224853,9.27568564 C8.41160396,9.19330446 8.67259311,9.32068377 8.7549743,9.5600392 C8.83770162,9.79922156 8.70997617,10.0603838 8.47044767,10.1431111 C8.23126531,10.2254923 7.9701031,10.098113 7.88754884,9.85841141 C7.80516765,9.61888291 7.93254697,9.35789376 8.17224853,9.27568564 M8.84531669,8.69330602 C7.88633735,8.69330602 7.10908122,9.47090829 7.10908122,10.4293684 C7.10908122,11.3886939 7.88633735,12.16595 8.84531669,12.16595 C9.80429603,12.16595 10.5817252,11.3886939 10.5817252,10.4293684 C10.5817252,9.47090829 9.80429603,8.69330602 8.84531669,8.69330602" id="Fill-27" fill="#501E12"></path>
                    <path d="M15.3578439,14.8539305 C15.2285608,14.4775039 14.8183855,14.2774353 14.4416128,14.4070645 C14.0653592,14.5366937 13.8652906,14.946869 13.9950929,15.3231226 C14.1247221,15.6995492 14.5347243,15.8996178 14.9109779,15.7701617 C15.2877506,15.6403594 15.4874731,15.2303572 15.3578439,14.8539305" id="Fill-29" fill="#81312A"></path>
                    <path d="M12.9336909,14.8539305 C12.8042347,14.4775039 12.3942325,14.2774353 12.0176328,14.4070645 C11.6413792,14.5366937 11.4413106,14.946869 11.5707668,15.3231226 C11.7005691,15.6995492 12.1105713,15.8996178 12.487171,15.7701617 C12.8635976,15.6403594 13.0634932,15.2303572 12.9336909,14.8539305" id="Fill-31" fill="#81312A"></path>
                    <path d="M17.7248839,13.4998849 C16.2266193,13.4998849 14.962518,12.2825125 14.962518,10.7376921 C14.962518,9.19252564 16.1800635,7.97532627 17.7248839,7.97532627 C19.2229754,7.97532627 20.4872498,9.20827499 20.4872498,10.7376921 C20.4872498,12.2669362 19.254301,13.4998849 17.7248839,13.4998849 M9.23512163,13.4998849 C7.73720317,13.4998849 6.47292883,12.2825125 6.47292883,10.7376921 C6.47292883,9.19252564 7.69030127,7.97532627 9.23512163,7.97532627 C10.7804612,7.97532627 11.9976606,9.20827499 11.9976606,10.7376921 C11.9976606,12.2669362 10.7335593,13.4998849 9.23512163,13.4998849 M17.7248839,7.19495488 C15.9145746,7.19495488 14.41631,8.56826315 14.2136453,10.3474199 L12.7152076,10.3474199 C12.5127161,8.55285994 11.0296816,7.19495488 9.20431522,7.19495488 C7.25347329,7.19495488 5.6614049,8.75569766 5.6614049,10.7376921 C5.6614049,12.7193405 7.23772394,14.2800833 9.20431522,14.2800833 C11.0147976,14.2800833 12.5127161,12.9069481 12.7152076,11.1276182 L14.2136453,11.1276182 C14.41631,12.9223513 15.8986522,14.2800833 17.7248839,14.2800833 C19.6598034,14.2800833 21.2676211,12.7193405 21.2676211,10.7376921 C21.2676211,8.75569766 19.691129,7.19495488 17.7248839,7.19495488" id="Fill-33" fill="#501E12"></path>
                    <path d="M13.4643919,19.7632609 C14.3621045,19.7632609 15.0900358,19.4404859 15.0900358,19.0422525 C15.0900358,18.6441921 14.3621045,18.321244 13.4643919,18.321244 C12.5668523,18.321244 11.8387479,18.6441921 11.8387479,19.0422525 C11.8387479,19.4404859 12.5668523,19.7632609 13.4643919,19.7632609" id="Fill-35" fill="#EB6D6C"></path>
                    <path d="M3.11535888,12.9830468 C3.1089553,12.8433796 3.10428242,12.7028469 3.10428242,12.5595452 C3.10428242,12.4247239 3.10791688,12.2900756 3.11362818,12.1557735 C3.11535888,12.1067948 3.11882027,12.0578161 3.12107018,12.0088373 C3.12591613,11.9255908 3.13162743,11.8421712 3.13872329,11.7592708 C3.14339617,11.6973118 3.14841519,11.6351798 3.15499184,11.573567 C3.16139542,11.5110888 3.16901049,11.4484376 3.17645249,11.3857863 C3.21106643,11.092087 3.25866061,10.8006376 3.31802352,10.5109189 C3.31975422,10.50365 3.32079264,10.4960349 3.32252334,10.488766 C3.36890602,10.2660252 3.42151922,10.0439768 3.48174748,9.82469742 C3.46790191,9.82417821 3.45405633,9.82227445 3.43986461,9.82227445 C2.49888452,9.82227445 1.73633931,10.5851658 1.73633931,11.5259728 C1.73633931,12.360342 2.33654512,13.0534862 3.12833911,13.1999032 C3.12747376,13.1864037 3.12556999,13.1734235 3.12487771,13.1599241 C3.12107018,13.1012534 3.11812799,13.0424097 3.11535888,12.9830468" id="Fill-37" fill="#EB6D6C"></path>
                    <path d="M25.1925656,11.5259728 C25.1925656,10.5849927 24.4300204,9.82227445 23.4888672,9.82227445 C23.4855789,9.82227445 23.4826367,9.82296673 23.4791753,9.82296673 C23.5385382,10.0384385 23.5899399,10.255468 23.6356303,10.4742281 C23.6383994,10.4859968 23.6409955,10.4975925 23.6434185,10.5090151 C23.6640138,10.6100878 23.6835706,10.7109875 23.7015699,10.8127525 C23.7069351,10.8445973 23.7119541,10.8769613 23.7174923,10.9089792 C23.7396452,11.0436275 23.7597213,11.178968 23.7765091,11.3144816 C23.7867202,11.3934014 23.7967582,11.4719751 23.8048925,11.5508949 C23.8106038,11.6087001 23.8151036,11.6671977 23.8201227,11.7255222 C23.8280839,11.8153454 23.8343144,11.9058609 23.8401987,11.9963763 C23.8424487,12.0446628 23.8452178,12.0926031 23.8472946,12.1407165 C23.8535251,12.2800376 23.8571596,12.4197049 23.8571596,12.5595452 C23.8571596,12.7011162 23.8526598,12.8399182 23.8460831,12.9778547 C23.8434871,13.0399868 23.8405449,13.1022919 23.8367374,13.1633855 C23.8355259,13.1741158 23.8343144,13.1839808 23.8336221,13.1947111 C24.6094937,13.0351408 25.1925656,12.3487463 25.1925656,11.5259728" id="Fill-39" fill="#EB6D6C"></path>
                    <path d="M11.9246771,10.3313071 C11.9246771,11.9957187 10.5899634,13.3454894 8.94355107,13.3454894 C8.57560483,13.3454894 8.22496557,13.2747039 7.89976756,13.1516513 C8.29869328,13.3730075 8.75438586,13.4998676 9.23517355,13.4998676 C10.7336112,13.4998676 11.9977125,12.2669189 11.9977125,10.7373287 C11.9977125,10.5021269 11.9651754,10.2750595 11.9111776,10.0568185 C11.9193119,10.147334 11.9246771,10.2385417 11.9246771,10.3313071" id="Fill-41" fill="#F6B98B"></path>
                    <path d="M17.9851634,13.3454029 C16.3387512,13.3454029 15.0043836,11.9958052 15.0043836,10.3312206 C15.0043836,10.2990296 15.0081911,10.2673579 15.0088834,10.23534 C14.9805,10.3981986 14.9625007,10.565557 14.9625007,10.7374152 C14.9625007,12.2824087 16.226602,13.4999542 17.7248666,13.4999542 C18.2395759,13.4999542 18.7186329,13.3576909 19.1307119,13.1141818 C18.7778228,13.2626756 18.3915312,13.3454029 17.9851634,13.3454029" id="Fill-43" fill="#F6B98B"></path>
                    <path d="M17.9851634,12.1658635 C17.0265302,12.1658635 16.2494472,11.3886074 16.2494472,10.4292819 C16.2494472,9.47082176 17.0265302,8.69321949 17.9851634,8.69321949 C18.9444889,8.69321949 19.721572,9.47082176 19.721572,10.4292819 C19.721572,11.3886074 18.9444889,12.1658635 17.9851634,12.1658635 M17.7248666,7.97532627 C16.3520775,7.97532627 15.2402776,8.93707473 15.0088834,10.2352707 C15.0081911,10.2674617 15.0043836,10.2989604 15.0043836,10.3313244 C15.0043836,11.995736 16.3387512,13.3453337 17.9851634,13.3453337 C18.3915312,13.3453337 18.7778228,13.2627794 19.1307119,13.1137664 C19.9427551,12.6341902 20.4872324,11.7522269 20.4872324,10.737346 C20.4872324,9.20827499 19.2229581,7.97532627 17.7248666,7.97532627" id="Fill-45" fill="#CE8662"></path>
                    <path d="M8.84526477,12.1658635 C7.88628543,12.1658635 7.10920237,11.3886074 7.10920237,10.4292819 C7.10920237,9.47082176 7.88628543,8.69321949 8.84526477,8.69321949 C9.80424411,8.69321949 10.5813272,9.47082176 10.5813272,10.4292819 C10.5813272,11.3886074 9.80424411,12.1658635 8.84526477,12.1658635 M9.23519086,7.97532627 C7.68985129,7.97532627 6.47299806,9.19252564 6.47299806,10.737346 C6.47299806,11.7868408 7.05693531,12.683342 7.89978487,13.1516687 C8.22498288,13.2747212 8.57562214,13.3453337 8.94322224,13.3453337 C10.5899807,13.3453337 11.9246944,11.995736 11.9246944,10.3313244 C11.9246944,10.2385591 11.9193292,10.1473513 11.9108488,10.0568358 C11.6117843,8.85902028 10.5425596,7.97532627 9.23519086,7.97532627" id="Fill-47" fill="#CE8662"></path>
                </g>
            </g>
        </g>
    </g>
</svg>