<?xml version="1.0" encoding="UTF-8"?>
<svg width="24px" height="19.924392px" viewBox="0 0 24 19.924392" version="1.1" xmlns="http://www.w3.org/2000/svg" xmlns:xlink="http://www.w3.org/1999/xlink">
    <title>云计算</title>
    <defs>
        <polygon id="path-1" points="0 0 24 0 24 24 0 24"></polygon>
    </defs>
    <g id="页面-1" stroke="none" stroke-width="1" fill="none" fill-rule="evenodd">
        <g id="C友会首页" transform="translate(-1040.000000, -473.000000)">
            <g id="兴趣小组" transform="translate(360.000000, 440.000000)">
                <g id="云计算" transform="translate(680.000000, 30.000000)">
                    <mask id="mask-2" fill="white">
                        <use xlink:href="#path-1"></use>
                    </mask>
                    <g id="Clip-4"></g>
                    <g id="编组-3" mask="url(#mask-2)">
                        <g transform="translate(0.000000, 3.000000)">
                            <rect id="矩形" stroke="none" fill="#FFFFFF" fill-rule="evenodd" x="0" y="0" width="24" height="18"></rect>
                            <path d="M18.2364444,19.924392 L5.57155556,19.924392 C2.49955556,19.924392 0,17.2382169 0,13.9368579 C0,12.3740619 0.558222222,10.8953282 1.568,9.77194912 C2.47822222,8.75937955 3.67288889,8.13655373 4.96355556,7.98371304 C5.56088889,4.54097648 8.37333333,2 11.6728889,2 C13.216,2 14.7271111,2.56933157 15.9324444,3.60100623 C17.0133333,4.52951343 17.8097778,5.79809116 18.208,7.20804654 C21.4115556,7.28064586 24,10.1043776 24,13.5623983 C23.9964444,17.0165979 21.4257778,19.8326876 18.2364444,19.924392 L18.2364444,19.924392 Z" id="路径" stroke="none" fill="#FF5100" fill-rule="nonzero" opacity="0.200000003"></path>
                            <path d="M11.6728889,1 C12.9813976,1 14.2608578,1.48653924 15.2808318,2.35955811 C16.2155977,3.16254245 16.9014344,4.26112164 17.2456471,5.47984968 C17.3179604,5.73588373 17.3746498,5.9952862 17.4156233,6.25608685 C17.6670435,6.21854407 17.9241469,6.20187058 18.1853437,6.20778985 C19.5110712,6.23783363 20.7050896,6.84452846 21.5699289,7.79333602 C22.4568231,8.76633973 23,10.098455 23.0000005,11.5613689 C22.998495,13.0239791 22.4585931,14.3540601 21.5766654,15.3275596 C20.7193161,16.2739287 19.5365146,16.882625 18.2213573,16.924392 L5.57155556,16.924392 C4.31895239,16.924392 3.18718188,16.370061 2.36585741,15.4874155 C1.51937651,14.5777354 1,13.3205021 1,11.9368579 C1,10.6260662 1.46400985,9.38351902 2.31169223,8.44047127 C3.05423693,7.61443324 4.02708535,7.10159703 5.08115383,6.97677429 C5.34042482,6.94607143 5.60040082,6.93934261 5.85849192,6.95581788 C5.87239892,6.69035026 5.90230363,6.42284856 5.94883504,6.15466434 C6.20796847,4.6611462 6.94548843,3.36126762 7.98046867,2.4382214 C8.987685,1.5399364 10.2778061,1 11.6728889,1 Z" id="路径" stroke="#333333" stroke-width="2" fill="#FFFFFF" fill-rule="nonzero"></path>
                            <polyline id="路径-3" stroke="#333333" stroke-width="2" fill="none" stroke-linecap="round" stroke-linejoin="bevel" points="8.13466989 9.06447059 11.5794625 9.06447059 13.9357002 12.6470588 18.0430985 12.6470588"></polyline>
                            <ellipse id="椭圆形备份" stroke="#333333" stroke-width="2" fill="#FFF8F8" fill-rule="evenodd" cx="4.17391304" cy="14.8235294" rx="2.04347826" ry="2.05882353"></ellipse>
                        </g>
                    </g>
                </g>
            </g>
        </g>
    </g>
</svg>