<?xml version="1.0" encoding="UTF-8"?>
<svg width="16.666811px" height="12.5000114px" viewBox="0 0 16.666811 12.5000114" version="1.1" xmlns="http://www.w3.org/2000/svg" xmlns:xlink="http://www.w3.org/1999/xlink">
    <title>观看icon</title>
    <g id="页面-1" stroke="none" stroke-width="1" fill="none" fill-rule="evenodd">
        <g id="C友会首页" transform="translate(-1296.000000, -1679.000000)">
            <g id="俱乐部头条" transform="translate(360.000000, 1399.000000)">
                <g id="li" transform="translate(608.000000, 198.000000)">
                    <g id="icon备份-4" transform="translate(191.000000, 79.000000)">
                        <g id="观看icon" transform="translate(136.000000, 0.000000)">
                            <rect id="矩形" x="0" y="0" width="18" height="18"></rect>
                            <path d="M9.3334055,15.5000114 C6.27777771,15.5000114 3.55173357,13.5716763 1.16131471,9.80458955 C0.946228431,9.46614862 0.946228431,9.03386278 1.16131471,8.69542185 C3.55173357,4.9283351 6.27777771,3 9.3334055,3 C12.3890333,3 15.1150774,4.9283351 17.5054963,8.69542185 C17.7205826,9.03386278 17.7205826,9.46614862 17.5054963,9.80458955 C15.1150774,13.5716763 12.3890333,15.5000114 9.3334055,15.5000114 Z M9.3334055,3.89285796 C6.76450497,3.89285796 4.0825622,5.64754706 1.88772,9.2500057 C4.0825622,12.8524643 6.76450497,14.6071534 9.3334055,14.6071534 C11.902306,14.6071534 14.5627993,12.8524643 16.7576415,9.2500057 C14.5627993,5.64754706 11.902306,3.89285796 9.3334055,3.89285796 Z M9.3334055,12.166675 C7.70819568,12.166675 6.39069448,10.8608405 6.39069448,9.2500057 C6.39069448,7.63917091 7.70819568,6.33333638 9.3334055,6.33333638 C10.9586153,6.33333638 12.2761165,7.63917091 12.2761165,9.2500057 C12.2761165,10.8608405 10.9586153,12.166675 9.3334055,12.166675 Z M9.3334055,11.0357216 C10.3196198,11.0357216 11.1191214,10.2361673 11.1191214,9.2500057 C11.1191214,8.26384409 10.3196198,7.46428979 9.3334055,7.46428979 C8.34719123,7.46428979 7.54768959,8.26384409 7.54768959,9.2500057 C7.54768959,10.2361673 8.34719123,11.0357216 9.3334055,11.0357216 Z" id="形状" fill="#999999" fill-rule="nonzero"></path>
                        </g>
                    </g>
                </g>
            </g>
        </g>
    </g>
</svg>