<?xml version="1.0" encoding="UTF-8"?>
<svg width="13.1011538px" height="14px" viewBox="0 0 13.1011538 14" version="1.1" xmlns="http://www.w3.org/2000/svg" xmlns:xlink="http://www.w3.org/1999/xlink">
    <title>dianzan_icon</title>
    <g id="页面-1" stroke="none" stroke-width="1" fill="none" fill-rule="evenodd">
        <g id="C友会首页" transform="translate(-1228.000000, -1678.000000)">
            <g id="俱乐部头条" transform="translate(360.000000, 1399.000000)">
                <g id="li" transform="translate(608.000000, 198.000000)">
                    <g id="icon备份-4" transform="translate(191.000000, 79.000000)">
                        <g id="dianzan_icon" transform="translate(67.000000, 0.000000)">
                            <rect id="矩形" x="0" y="0" width="18" height="18"></rect>
                            <path d="M10.2587764,7.2941 C10.5252768,6.0761 10.7113824,5.19515 10.8174352,4.64950001 C11.0842777,3.27575 10.3913424,2 9.01795863,2 C7.77953559,2 7.15758722,2.62965 6.7908498,3.88825001 L6.78144188,3.92500001 C6.56129679,4.94315001 6.22466467,5.7324 5.77907184,6.297125 C5.3097524,6.89342434 4.60713102,7.24743036 3.85900298,7.26452501 L3.50766031,7.272225 C2.66984317,7.2906 2,7.9962 2,8.86052501 L2,14.075 C2,15.138125 2.83559345,16 3.8665293,16 L10.5829832,16 C11.9418274,16 13.1547636,15.12115 13.6157512,13.802875 L14.9899902,9.8722 C15.3396224,8.87207501 14.8370689,7.768875 13.86737,7.4082 C13.6644026,7.33270441 13.4500978,7.29408987 13.2341322,7.2941 L10.2587764,7.2941 Z M9.81728886,4.44335 C9.6958413,5.06915 9.46474882,6.1566 9.12418249,7.702725 C9.05182711,8.0312 9.29352487,8.3441 9.61989381,8.3441 L13.2763411,8.3441 C13.3741833,8.3441 13.4713414,8.3616 13.5635389,8.396075 C14.003658,8.55987499 14.2318426,9.061425 14.0731055,9.516075 L12.7009191,13.446575 C12.3860107,14.348875 11.5572593,14.95 10.6287842,14.95 L3.87354248,14.95 C3.40554173,14.95 3.02631744,14.558175 3.02631744,14.075 L3.02631744,8.86052501 C3.02631744,8.5674 3.25313359,8.32817501 3.5367393,8.32205 L3.88739777,8.31435 C4.93365161,8.29020394 5.91604731,7.79446081 6.57155996,6.95985 C7.12235033,6.2609 7.52004833,5.3306 7.77218031,4.17280001 C8.02054913,3.32895 8.30039169,3.05 9.01744547,3.05 C9.64674911,3.05 9.97140753,3.6485 9.81728886,4.44335 Z" id="形状" fill="#999999" fill-rule="nonzero"></path>
                        </g>
                    </g>
                </g>
            </g>
        </g>
    </g>
</svg>