<?xml version="1.0" encoding="UTF-8"?>
<svg width="14px" height="14px" viewBox="0 0 14 14" version="1.1" xmlns="http://www.w3.org/2000/svg" xmlns:xlink="http://www.w3.org/1999/xlink">
    <title>gouwuc</title>
    <g id="页面-1" stroke="none" stroke-width="1" fill="none" fill-rule="evenodd" opacity="0.600000024">
        <g id="0首页【美衣网】" transform="translate(-1451.000000, -13.000000)">
            <g id="gouwuc" transform="translate(1451.000000, 13.000000)">
                <rect id="矩形" x="0" y="0" width="14" height="14"></rect>
                <path d="M4.76,11.0833333 C4.950681,11.0833333 5.13132616,11.1201201 5.30193548,11.1936937 C5.4725448,11.2672673 5.62308244,11.3697447 5.75354839,11.5011261 C5.88401434,11.6325075 5.98437276,11.7875375 6.05462366,11.9662162 C6.12487455,12.1448949 6.16,12.3340841 6.16,12.5337838 C6.16,12.7334835 6.12487455,12.9226727 6.05462366,13.1013514 C5.98437276,13.28003 5.88401434,13.4350601 5.75354839,13.5664414 C5.62308244,13.6978228 5.4725448,13.8029279 5.30193548,13.8817568 C5.13132616,13.9605856 4.950681,14 4.76,14 C4.55928315,14 4.37612903,13.9605856 4.21053763,13.8817568 C4.04494624,13.8029279 3.89691756,13.6978228 3.76645161,13.5664414 C3.63598566,13.4350601 3.53562724,13.28003 3.46537634,13.1013514 C3.39512545,12.9226727 3.36,12.7334835 3.36,12.5337838 C3.36,12.3340841 3.39512545,12.1448949 3.46537634,11.9662162 C3.53562724,11.7875375 3.63598566,11.6325075 3.76645161,11.5011261 C3.89691756,11.3697447 4.04494624,11.2672673 4.21053763,11.1936937 C4.37612903,11.1201201 4.55928315,11.0833333 4.76,11.0833333 Z M10.3525134,11.0833333 C10.5421747,11.0833333 10.7243494,11.1201201 10.8990374,11.1936937 C11.0737255,11.2672673 11.2234581,11.3697447 11.3482353,11.5011261 C11.4730125,11.6325075 11.5728342,11.7875375 11.6477005,11.9662162 C11.7225668,12.1448949 11.76,12.3340841 11.76,12.5337838 C11.76,12.7334835 11.7225668,12.9226727 11.6477005,13.1013514 C11.5728342,13.28003 11.4730125,13.4350601 11.3482353,13.5664414 C11.2234581,13.6978228 11.0737255,13.8029279 10.8990374,13.8817568 C10.7243494,13.9605856 10.5421747,14 10.3525134,14 C10.162852,14 9.98317291,13.9605856 9.81347594,13.8817568 C9.64377897,13.8029279 9.49654189,13.6978228 9.37176471,13.5664414 C9.24698752,13.4350601 9.14716578,13.28003 9.07229947,13.1013514 C8.99743316,12.9226727 8.96,12.7334835 8.96,12.5337838 C8.96,12.3340841 8.99743316,12.1448949 9.07229947,11.9662162 C9.14716578,11.7875375 9.24698752,11.6325075 9.37176471,11.5011261 C9.49654189,11.3697447 9.64377897,11.2672673 9.81347594,11.1936937 C9.98317291,11.1201201 10.162852,11.0833333 10.3525134,11.0833333 Z M12.9848315,2.70833333 C13.2497315,2.70833333 13.4555021,2.74447279 13.6021431,2.8167517 C13.7487842,2.88903061 13.8528521,2.9781746 13.9143467,3.08418367 C13.9758414,3.19019274 14.0042235,3.30342971 13.9994932,3.42389456 C13.9947628,3.54435941 13.9782066,3.64795918 13.9498244,3.73469388 C13.9214423,3.82142857 13.8623128,3.99971655 13.772436,4.26955782 C13.6825592,4.53939909 13.5808565,4.83574263 13.467328,5.15858844 C13.3537994,5.48143424 13.242636,5.80187075 13.1338377,6.11989796 C13.0250395,6.43792517 12.9422583,6.68849206 12.885494,6.87159864 C12.7625047,7.25708617 12.6064029,7.52451814 12.4171886,7.67389456 C12.2279743,7.82327098 11.9961868,7.89795918 11.721826,7.89795918 L11.2393295,7.89795918 L10.3169098,7.89795918 L9.11066865,7.89795918 L7.79089889,7.89795918 L4.27151287,7.89795918 L4.48437896,9.19897959 L11.6366796,9.19897959 C12.0907939,9.19897959 12.3178511,9.39654195 12.3178511,9.79166667 C12.3178511,9.98441043 12.2729127,10.1506519 12.1830359,10.2903912 C12.0931591,10.4301304 11.9157707,10.5 11.6508707,10.5 L10.9696992,10.5 L9.64992941,10.5 L8.01795605,10.5 L6.35760055,10.5 L4.99525758,10.5 L4.21474858,10.5 C4.02553428,10.5 3.8670673,10.4566327 3.73934765,10.369898 C3.61162799,10.2831633 3.50519495,10.1699263 3.42004851,10.0301871 C3.33490207,9.89044785 3.26631189,9.73866213 3.21427796,9.57482993 C3.16224402,9.41099773 3.12203598,9.25680272 3.09365384,9.1122449 C3.08419312,9.05442177 3.05817616,8.91468254 3.01560294,8.69302721 C2.97302972,8.47137188 2.92099579,8.19430272 2.85950114,7.86181973 C2.79800649,7.52933673 2.72941631,7.15830499 2.65373059,6.74872449 C2.57804487,6.33914399 2.50235915,5.9271542 2.42667342,5.5127551 C2.24691984,4.53939909 2.04351446,3.45521542 1.8164573,2.26020408 L0.752126851,2.26020408 C0.610216124,2.26020408 0.491957185,2.22406463 0.397350034,2.15178571 C0.302742883,2.0795068 0.224691984,1.99277211 0.163197336,1.89158163 C0.101702687,1.79039116 0.0591294694,1.68197279 0.0354776816,1.56632653 C0.0118258939,1.45068027 0,1.3446712 0,1.24829932 C0,1.05555556 0.063859827,0.89654195 0.191579481,0.771258503 C0.319299135,0.645975057 0.491957185,0.583333333 0.709553633,0.583333333 L1.02175723,0.583333333 L1.30557868,0.583333333 L1.6603555,0.583333333 L2.14285197,0.583333333 C2.33206627,0.583333333 2.48343771,0.612244898 2.5969663,0.670068027 C2.71049488,0.727891156 2.80037167,0.800170068 2.86659668,0.886904762 C2.93282168,0.973639456 2.98012526,1.06519274 3.0085074,1.16156463 C3.03688955,1.25793651 3.06054134,1.33985261 3.07946277,1.40731293 C3.0983842,1.48441043 3.11730563,1.5928288 3.13622706,1.73256803 C3.15514849,1.87230726 3.17406992,2.01445578 3.19299135,2.15901361 C3.22137349,2.33248299 3.24975564,2.51558957 3.27813778,2.70833333 L12.9848315,2.70833333 Z" id="形状" fill="#FFFFFF" fill-rule="nonzero"></path>
            </g>
        </g>
    </g>
</svg>