<?xml version="1.0" encoding="UTF-8"?>
<svg width="16px" height="16px" viewBox="0 0 16 16" version="1.1" xmlns="http://www.w3.org/2000/svg" xmlns:xlink="http://www.w3.org/1999/xlink">
    <title>gouwucolor</title>
    <g id="页面-1" stroke="none" stroke-width="1" fill="none" fill-rule="evenodd">
        <g id="0首页【美衣网】" transform="translate(-1528.000000, -1372.000000)">
            <g id="有好货" transform="translate(360.000000, 1028.000000)">
                <g id="text" transform="translate(988.000000, 278.000000)">
                    <g id="gouwucolor" transform="translate(180.000000, 66.000000)">
                        <rect id="矩形" x="0" y="0" width="16" height="16"></rect>
                        <path d="M5.44,12.6666667 C5.65792115,12.6666667 5.86437276,12.7087087 6.05935484,12.7927928 C6.25433692,12.8768769 6.42637993,12.993994 6.57548387,13.1441441 C6.72458781,13.2942943 6.83928315,13.4714715 6.91956989,13.6756757 C6.99985663,13.8798799 7.04,14.0960961 7.04,14.3243243 C7.04,14.5525526 6.99985663,14.7687688 6.91956989,14.972973 C6.83928315,15.1771772 6.72458781,15.3543544 6.57548387,15.5045045 C6.42637993,15.6546547 6.25433692,15.7747748 6.05935484,15.8648649 C5.86437276,15.954955 5.65792115,16 5.44,16 C5.21060932,16 5.00129032,15.954955 4.81204301,15.8648649 C4.6227957,15.7747748 4.45362007,15.6546547 4.30451613,15.5045045 C4.15541219,15.3543544 4.04071685,15.1771772 3.96043011,14.972973 C3.88014337,14.7687688 3.84,14.5525526 3.84,14.3243243 C3.84,14.0960961 3.88014337,13.8798799 3.96043011,13.6756757 C4.04071685,13.4714715 4.15541219,13.2942943 4.30451613,13.1441441 C4.45362007,12.993994 4.6227957,12.8768769 4.81204301,12.7927928 C5.00129032,12.7087087 5.21060932,12.6666667 5.44,12.6666667 Z M11.8314439,12.6666667 C12.0481996,12.6666667 12.2563993,12.7087087 12.4560428,12.7927928 C12.6556863,12.8768769 12.8268093,12.993994 12.9694118,13.1441441 C13.1120143,13.2942943 13.2260963,13.4714715 13.3116578,13.6756757 C13.3972193,13.8798799 13.44,14.0960961 13.44,14.3243243 C13.44,14.5525526 13.3972193,14.7687688 13.3116578,14.972973 C13.2260963,15.1771772 13.1120143,15.3543544 12.9694118,15.5045045 C12.8268093,15.6546547 12.6556863,15.7747748 12.4560428,15.8648649 C12.2563993,15.954955 12.0481996,16 11.8314439,16 C11.6146881,16 11.4093405,15.954955 11.2154011,15.8648649 C11.0214617,15.7747748 10.8531907,15.6546547 10.7105882,15.5045045 C10.5679857,15.3543544 10.4539037,15.1771772 10.3683422,14.972973 C10.2827807,14.7687688 10.24,14.5525526 10.24,14.3243243 C10.24,14.0960961 10.2827807,13.8798799 10.3683422,13.6756757 C10.4539037,13.4714715 10.5679857,13.2942943 10.7105882,13.1441441 C10.8531907,12.993994 11.0214617,12.8768769 11.2154011,12.7927928 C11.4093405,12.7087087 11.6146881,12.6666667 11.8314439,12.6666667 Z M14.8398074,3.0952381 C15.1425503,3.0952381 15.3777166,3.13654033 15.5453064,3.2191448 C15.7128963,3.30174927 15.831831,3.40362812 15.9021106,3.52478134 C15.9723902,3.64593456 16.0048269,3.77534823 15.9994208,3.91302235 C15.9940146,4.05069647 15.9750932,4.16909621 15.9426565,4.26822157 C15.9102197,4.36734694 15.8426432,4.57110463 15.7399269,4.87949466 C15.6372105,5.18788468 15.5209789,5.52656301 15.3912319,5.89552964 C15.261485,6.26449627 15.1344411,6.63070943 15.0101003,6.9941691 C14.8857595,7.35762877 14.7911523,7.64399093 14.7262788,7.85325559 C14.5857196,8.29381276 14.4073176,8.5994493 14.1910727,8.77016521 C13.9748277,8.94088111 13.7099277,9.02623907 13.3963726,9.02623907 L12.8449481,9.02623907 L11.7907541,9.02623907 L10.4121927,9.02623907 L8.90388444,9.02623907 L4.88172899,9.02623907 L5.12500453,10.5131195 L13.2990624,10.5131195 C13.8180502,10.5131195 14.0775441,10.7389051 14.0775441,11.1904762 C14.0775441,11.4107548 14.0261859,11.6007451 13.9234696,11.760447 C13.8207532,11.920149 13.6180236,12 13.3152807,12 L12.536799,12 L11.0284908,12 L9.16337834,12 L7.2658292,12 L5.7088658,12 L4.81685552,12 C4.6006106,12 4.41950548,11.9504373 4.27354017,11.851312 C4.12757485,11.7521866 4.00593708,11.6227729 3.90862687,11.4630709 C3.81131666,11.303369 3.73292787,11.1298996 3.67346052,10.9426628 C3.61399317,10.755426 3.56804113,10.5792031 3.53560439,10.4139942 C3.52479214,10.3479106 3.49505847,10.1882086 3.44640336,9.93488824 C3.39774825,9.68156787 3.3382809,9.3649174 3.2680013,8.98493683 C3.19772171,8.60495627 3.11933292,8.18091999 3.03283496,7.71282799 C2.94633699,7.24473599 2.85983902,6.77389051 2.77334106,6.30029155 C2.56790839,5.18788468 2.3354451,3.94881762 2.0759512,2.58309038 L0.859573544,2.58309038 C0.697389856,2.58309038 0.562236783,2.54178814 0.454114325,2.45918367 C0.345991867,2.3765792 0.256790839,2.27745384 0.186511241,2.16180758 C0.116231643,2.04616132 0.0675765365,1.92225462 0.0405459219,1.79008746 C0.0135153073,1.65792031 0,1.53676709 0,1.42662779 C0,1.20634921 0.0729826594,1.02461937 0.218947978,0.88143829 C0.364913297,0.738257208 0.562236783,0.666666667 0.810918438,0.666666667 L1.16772255,0.666666667 L1.49208993,0.666666667 L1.89754914,0.666666667 L2.44897368,0.666666667 C2.6652186,0.666666667 2.83821453,0.699708455 2.96796148,0.765792031 C3.09770843,0.831875607 3.20042477,0.914480078 3.27611049,1.01360544 C3.35179621,1.11273081 3.40585744,1.21736314 3.43829418,1.32750243 C3.47073091,1.43764172 3.49776153,1.53126012 3.51938602,1.60835763 C3.54101051,1.69646906 3.562635,1.82037577 3.58425949,1.98007775 C3.60588399,2.13977972 3.62750848,2.30223518 3.64913297,2.46744412 C3.68156971,2.66569485 3.71400644,2.87495951 3.74644318,3.0952381 L14.8398074,3.0952381 Z" id="形状" fill="#FF5100" fill-rule="nonzero"></path>
                    </g>
                </g>
            </g>
        </g>
    </g>
</svg>