<?xml version="1.0" encoding="UTF-8"?>
<svg width="32px" height="32px" viewBox="0 0 32 32" version="1.1" xmlns="http://www.w3.org/2000/svg" xmlns:xlink="http://www.w3.org/1999/xlink">
    <title>huoyuan</title>
    <g id="页面-1" stroke="none" stroke-width="1" fill="none" fill-rule="evenodd">
        <g id="0首页【美衣网】" transform="translate(-1387.000000, -2276.000000)">
            <g id="btm2" transform="translate(0.000000, 2225.000000)">
                <g id="huoyuan" transform="translate(1388.000000, 52.000000)">
                    <circle id="椭圆形" stroke="#1E1E1E" stroke-width="0.5" cx="15" cy="15" r="15"></circle>
                    <path d="M14.7905525,6.19714295 C15.0108691,6.07743608 15.2538788,6.01040082 15.502012,6.0008839 C15.7465515,5.99231121 15.9894021,6.0462037 16.2095189,6.15789114 C16.2095189,6.15789114 23.885376,10.119845 24,10.1983486 L15.502012,14.5912461 L7.00007144,10.2764391 C7.07912249,10.1979354 14.7905525,6.19714295 14.7905525,6.19714295 Z M7.84196514,21.1574543 C7.32388523,20.8964959 6.99607996,20.3467781 7.0000354,19.7456286 L7.0000354,11.3122737 L10.0593471,12.9203584 L10.0593471,16.4505424 C10.0466385,16.753528 10.212952,17.0336633 10.4783177,17.1562486 L11.0119123,17.4310113 C11.0573024,17.4627152 11.1116783,17.4772899 11.1660618,17.472329 C11.2683711,17.4797764 11.3688405,17.4411141 11.4421107,17.3661009 C11.5153809,17.2910877 11.554451,17.1868909 11.5494594,17.0798109 L11.5494594,13.7045683 L14.9881802,15.5093253 L14.9881802,24.9624009 L7.84196514,21.1574543 Z M23.1778691,21.1574543 L16.1660408,25 L16.1660408,15.5093253 L23.9960474,11.3118605 L23.9960474,19.7452154 C24.0030917,20.3404937 23.6857866,20.8881867 23.1778691,21.1574543 L23.1778691,21.1574543 Z" id="形状" fill="#2B2B2B" fill-rule="nonzero"></path>
                </g>
            </g>
        </g>
    </g>
</svg>