<?xml version="1.0" encoding="UTF-8"?>
<svg width="14px" height="14px" viewBox="0 0 14 14" version="1.1" xmlns="http://www.w3.org/2000/svg" xmlns:xlink="http://www.w3.org/1999/xlink">
    <title>shouc</title>
    <g id="页面-1" stroke="none" stroke-width="1" fill="none" fill-rule="evenodd" opacity="0.600000024">
        <g id="0首页【美衣网】" transform="translate(-1325.000000, -13.000000)">
            <g id="shouc" transform="translate(1325.000000, 13.000000)">
                <rect id="矩形" x="0" y="0" width="14" height="14"></rect>
                <path d="M13.7163057,6.29220742 L11.0528215,9.00260196 L11.6817768,12.833873 C11.7442447,13.2080536 11.5972738,13.5867298 11.3029393,13.809963 C11.0086047,14.0331961 10.618234,14.0620576 10.2967051,13.8843575 L6.99998196,12.0738662 L3.70752589,13.88079 C3.38601388,14.057212 2.99644505,14.0277456 2.70264704,13.8047826 C2.40884903,13.5818195 2.26178639,13.2040368 2.32330422,12.8303055 L2.95140943,8.9990345 L0.287925309,6.29220742 C0.027980806,6.02728427 -0.0654881825,5.63132643 0.0467741812,5.27063139 C0.159036545,4.90993635 0.457587192,4.646974 0.817038484,4.59218533 L4.4994955,4.03442703 L6.14400672,0.55509835 C6.30318456,0.214706253 6.63460024,-0.00086164108 6.99741507,0 C7.3602299,-0.00086164108 7.69164558,0.214706253 7.85082342,0.55509835 L9.49705145,4.03797708 L13.1778083,4.59575278 C13.5374114,4.64847566 13.8372566,4.90956962 13.9514904,5.26944603 C14.0657242,5.62932243 13.9745769,6.0256999 13.7163057,6.29220742 L13.7163057,6.29220742 Z" id="收藏" fill="#FFFFFF" fill-rule="nonzero"></path>
            </g>
        </g>
    </g>
</svg>