<?xml version="1.0" encoding="UTF-8"?>
<svg width="32px" height="32px" viewBox="0 0 32 32" version="1.1" xmlns="http://www.w3.org/2000/svg" xmlns:xlink="http://www.w3.org/1999/xlink">
    <title>tuihuan</title>
    <g id="页面-1" stroke="none" stroke-width="1" fill="none" fill-rule="evenodd">
        <g id="0首页【美衣网】" transform="translate(-1387.000000, -2330.000000)">
            <g id="btm2" transform="translate(0.000000, 2225.000000)">
                <g id="tuihuan" transform="translate(1388.000000, 106.000000)">
                    <circle id="椭圆形备份" stroke="#1E1E1E" stroke-width="0.5" cx="15" cy="15" r="15"></circle>
                    <path d="M22.523817,7.41379876 L22.0476339,7.41379876 C17.5714286,7.41379876 15.5714286,5.48277333 15.5714286,5.48277333 L15.0952455,5 L14.6190625,5.48277333 C14.6190625,5.48277333 12.7142857,7.41379876 8.14285714,7.41379876 L7,7.41379876 L7,16.1034471 C7,18.4206867 7.85714286,21.7034503 14.8095313,24.2137856 L15,24.3103448 L15.1904911,24.2137856 C22.2381027,21.7034503 23,18.3241275 23,16.1034471 L23,7.41379876 L22.523817,7.41379876 M14.3333482,18.3241275 L10.2381027,14.7517316 L11.2857143,13.8827668 L13.4762054,15.4275781 C13.4762054,15.4275781 16.4285714,12.3379328 19.2857143,10.8896581 L19.6666741,11.3724088 C19.7619196,11.3724088 16.2381027,14.3655175 14.3333482,18.3241275" id="形状" fill="#000000" fill-rule="nonzero"></path>
                </g>
            </g>
        </g>
    </g>
</svg>