<?xml version="1.0" encoding="UTF-8"?>
<svg width="100px" height="100px" viewBox="0 0 100 100" version="1.1" xmlns="http://www.w3.org/2000/svg" xmlns:xlink="http://www.w3.org/1999/xlink">
    <title>pt4</title>
    <g id="页面-1" stroke="none" stroke-width="1" fill="none" fill-rule="evenodd">
        <g id="BSV首页" transform="translate(-408.000000, -1502.000000)">
            <g id="其它资料" transform="translate(360.000000, 1386.000000)">
                <g id="pt4" transform="translate(48.000000, 116.000000)">
                    <rect id="矩形" stroke="#00368C" stroke-width="3" fill="#FFFFFF" x="1.5" y="1.5" width="97" height="97"></rect>
                    <g id="公开课" transform="translate(20.800000, 59.080000)" fill="#00368C" fill-rule="nonzero">
                        <path d="M5.28,0.16 C4.14,3.86 2.38,6.84 0,9.08 L1.66,10.52 C3.96,8.3 5.82,5.12 7.22,0.96 L5.28,0.16 Z M13.08,10.76 L11.2,11.4 C11.86,12.44 12.5,13.6 13.12,14.86 C10.56,15.26 7.92,15.54 5.24,15.72 C6.88,13.44 8.48,10.68 10.04,7.46 L7.98,6.74 C5.38,12.48 3.4,15.5 2.06,15.8 L2.42,17.84 C6.68,17.56 10.54,17.18 13.98,16.66 C14.24,17.26 14.5,17.88 14.76,18.52 L16.72,17.64 C15.7,15.2 14.48,12.9 13.08,10.76 Z M12.74,0 L10.94,1 C12.08,4.92 14.08,8.1 16.94,10.56 L18.44,8.82 C15.72,6.54 13.82,3.6 12.74,0 Z" id="形状"></path>
                        <path d="M21.3,1 L21.3,3.02 L24.76,3.02 L24.76,7.28 C24.76,7.4 24.74,7.5 24.74,7.62 L20.28,7.62 L20.28,9.64 L24.6,9.64 C24.44,11 24.18,12.18 23.82,13.18 C23.26,14.58 22.18,15.76 20.56,16.7 L21.7,18.48 C23.48,17.58 24.76,16.28 25.54,14.6 C26.12,13.26 26.52,11.6 26.72,9.64 L31.9,9.64 L31.9,18.22 L34,18.22 L34,9.64 L38.14,9.64 L38.14,7.62 L34,7.62 L34,3.02 L37.14,3.02 L37.14,1 L21.3,1 Z M26.88,3.02 L31.9,3.02 L31.9,7.62 L26.86,7.62 C26.86,7.5 26.88,7.4 26.88,7.28 L26.88,3.02 Z" id="形状"></path>
                        <path d="M46.92,0.66 L46.92,8.78 L51.1,8.78 L51.1,10.18 L46.12,10.18 L46.12,12.1 L49.46,12.1 C48.58,13.68 47.24,15 45.48,16.08 L46.56,17.84 C48.64,16.32 50.14,14.42 51.08,12.1 L51.1,12.1 L51.1,18.48 L53.04,18.48 L53.04,12.1 L53.08,12.1 C53.92,14.18 55.32,16.1 57.32,17.84 L58.66,16.18 C56.86,14.96 55.52,13.6 54.68,12.1 L58.1,12.1 L58.1,10.18 L53.04,10.18 L53.04,8.78 L57.26,8.78 L57.26,0.66 L46.92,0.66 Z M55.36,7.02 L53.04,7.02 L53.04,5.6 L55.36,5.6 L55.36,7.02 Z M51.1,7.02 L48.82,7.02 L48.82,5.6 L51.1,5.6 L51.1,7.02 Z M48.82,3.92 L48.82,2.46 L51.1,2.46 L51.1,3.92 L48.82,3.92 Z M53.04,2.46 L55.36,2.46 L55.36,3.92 L53.04,3.92 L53.04,2.46 Z M42.76,0.14 L41.28,1.56 C42.7,2.6 43.8,3.56 44.56,4.48 L45.98,3.04 C45.1,2.08 44.02,1.1 42.76,0.14 Z M39.92,5.9 L39.92,7.9 L42.52,7.9 L42.52,14.84 C42.52,15.26 42.34,15.62 41.98,15.9 L42.78,17.76 C44.04,16.88 45.24,15.88 46.38,14.76 L45.84,12.62 C45.38,13.08 44.94,13.5 44.52,13.9 L44.52,5.9 L39.92,5.9 Z" id="形状"></path>
                    </g>
                    <path d="M72.3827167,46.2494374 C73.2620411,44.3678033 74.1283322,42.4099362 74.9815902,40.3758361 C75.8345709,38.3422986 76.6451244,36.3287335 77.4129734,34.3362662 C78.1810997,32.3446427 78.8882196,30.4410671 79.5348877,28.6258205 C80.1812784,26.8105739 80.753075,25.1854879 81.25,23.75 L75.933845,23.75 C75.5167829,25.0597456 75.0545206,26.4654154 74.5473354,27.9672907 C74.0401502,29.4691661 73.5224276,30.965978 72.9944447,32.4582891 C72.4670165,33.951444 71.9562264,35.3801807 71.4620743,36.7447803 C70.967645,38.1093799 70.5123153,39.2871945 70.0958078,40.2779427 C69.6537886,39.282131 69.1915263,38.1017847 68.7092982,36.7366225 L67.1941206,32.4481622 C66.6669696,30.956695 66.149247,29.4596018 65.6412299,27.9571638 C65.1329355,26.4550072 64.6712278,25.0524317 64.2563841,23.75 L58.75,23.75 C59.221136,25.1778927 59.7810085,26.8015722 60.4293404,28.620757 C61.0776723,30.4402232 61.7881198,32.3443614 62.5606829,34.3340158 C63.333246,36.3219822 64.1490683,38.3330156 65.0078723,40.3682409 C65.866399,42.3989654 66.737127,44.3596456 67.6203336,46.25 L72.3827167,46.25 L72.3827167,46.2494374 Z M44.1752747,41.4376491 C43.2569424,41.19322 42.3686308,40.8574502 41.5247498,40.4360307 L40,44.507951 C40.3875668,44.7142502 40.7865415,44.9003464 41.195423,45.0656703 C41.7466025,45.2898962 42.3139932,45.4771306 42.8930919,45.6265197 C43.6391055,45.8177378 44.3971274,45.9648505 45.1626545,46.0672887 C46.1152103,46.1956211 47.0761719,46.2567995 48.0383344,46.2494012 C51.2025129,46.2494012 53.5702431,45.6635113 55.1412247,44.4908779 C56.7119061,43.3213746 57.4972469,41.6738261 57.4975471,39.5482325 C57.5215636,38.5998251 57.3690586,37.6551168 57.047237,36.7567903 C56.7536349,36.0010237 56.2859129,35.3166793 55.6785947,34.7535535 C55.0004278,34.1412004 54.222292,33.6369766 53.3745083,33.2596624 C52.4504721,32.8328363 51.3646245,32.4003193 50.1175659,31.9621112 C49.5171526,31.7652022 48.9683747,31.573415 48.4718329,31.3873188 C48.0125166,31.2197185 47.5712128,31.0111428 47.1539255,30.7641528 C46.8080874,30.5652519 46.5075805,30.3028962 46.2704172,29.9921668 C46.0542684,29.6808684 45.9455935,29.313798 45.9588026,28.9413212 C45.9188751,28.3133178 46.2445994,27.7146232 46.807487,27.3811297 C47.3733766,27.0419453 48.3031167,26.8723531 49.5967073,26.8720686 C50.5987973,26.85215 51.5981853,26.9793442 52.559147,27.2499519 C53.3276761,27.4818607 54.0751908,27.7726715 54.7938856,28.1201079 L56.3531591,24.0794881 C54.1631513,22.9959191 51.7200693,22.4538501 49.2502688,22.5030773 C48.0077133,22.4874271 46.7699611,22.6479136 45.5775401,22.9791306 C44.5688456,23.2585594 43.6273975,23.7215234 42.8057317,24.3421284 C42.0522129,24.9228964 41.4478969,25.6587444 41.0387152,26.4936162 C40.6118212,27.385398 40.3989747,28.3554313 40.4148856,29.3345702 C40.3857656,30.2576526 40.5875045,31.1744749 41.0038912,32.0093466 C41.3779487,32.7221461 41.8961055,33.3581169 42.528641,33.8816902 C43.1635781,34.4038407 43.8756684,34.8352195 44.6420961,35.1621682 C45.4271366,35.5036291 46.2124773,35.8024073 46.9981182,36.0670394 C48.7993584,36.6361408 50.0701333,37.1673969 50.8107432,37.6608078 C51.493113,38.0563333 51.9122016,38.7574662 51.9194065,39.5157937 C51.9242098,39.8401815 51.8653693,40.1625774 51.7461872,40.466193 C51.6195,40.7658249 51.4024506,41.0230587 51.1223577,41.2060248 C50.7603085,41.44021 50.3547292,41.6072413 49.9272349,41.6982975 C49.3079085,41.83289 48.6735718,41.8937838 48.0386346,41.8806945 C46.7348369,41.9074422 45.4337411,41.7586222 44.1743741,41.4376491 L44.1752747,41.4376491 Z M23.75,27.5973671 C24.1782708,27.5546108 24.6665738,27.5273255 25.2142901,27.5160738 C25.7620064,27.5048221 26.2738272,27.4994776 26.7500619,27.5 C28.2261109,27.5 29.3450613,27.684005 30.1072224,28.0519345 C30.8693836,28.419864 31.25,29.0583962 31.25,29.9675309 C31.25,30.8552875 30.880833,31.4994455 30.1428085,31.8994422 C29.404784,32.2997203 28.1784565,32.5 26.4644449,32.5 L23.75,32.5 L23.75,27.5973671 Z M26.8513966,36.25 C28.2645871,36.25 29.3509396,36.4828843 30.1107283,36.948357 C30.8702428,37.4138296 31.25,38.1941547 31.25,39.2890364 C31.25,40.5170794 30.7962107,41.3595464 29.8891803,41.8161417 C28.9818758,42.2730328 27.7899591,42.5005907 26.31343,42.5 C25.8069956,42.5 25.3425127,42.4878664 24.9208039,42.4641933 C24.4985468,42.4434793 24.1083702,42.4079696 23.75,42.3638784 L23.75,36.25 L26.8513966,36.25 Z M33.70593,45.6605833 C35.4013918,44.4346922 36.2489841,42.6059989 36.2492613,40.1745033 C36.2658916,39.0425102 36.0014694,37.9250076 35.4814946,36.9315431 C34.9695577,35.9722761 34.0097106,35.2141363 32.6022307,34.6565442 C34.308225,33.5871499 35.1613608,32.1265136 35.1616379,30.2743458 C35.1962845,29.1936489 34.9468296,28.1233851 34.4409904,27.1800575 C33.9531675,26.3358446 33.2641177,25.6388545 32.4414708,25.1563229 C31.4921563,24.6088741 30.4580272,24.2408169 29.3864798,24.0692502 C28.1017871,23.8487057 26.8018499,23.742056 25.4999724,23.7504605 C24.4547564,23.7504605 23.3244485,23.8008872 22.1090488,23.9011611 C20.9826214,23.9895527 19.861183,24.1402533 18.75,24.3526831 L18.75,46.8308311 C19.9881278,47.1116558 21.2442718,47.2968436 22.508731,47.3843659 C23.713321,47.461455 24.9234545,47.5 26.1396857,47.5 C29.488202,47.5005792 32.010191,46.8876337 33.70593,45.6605833 L33.70593,45.6605833 Z" id="Fill-2" fill="#00368C"></path>
                </g>
            </g>
        </g>
    </g>
</svg>