<?xml version="1.0" encoding="UTF-8"?>
<svg width="37.525px" height="38px" viewBox="0 0 37.525 38" version="1.1" xmlns="http://www.w3.org/2000/svg" xmlns:xlink="http://www.w3.org/1999/xlink">
    <title>ts</title>
    <defs>
        <radialGradient cx="70.6448581%" cy="51.8323344%" fx="70.6448581%" fy="51.8323344%" r="80.9801323%" id="radialGradient-1">
            <stop stop-color="#448CFF" offset="0%"></stop>
            <stop stop-color="#002247" offset="100%"></stop>
        </radialGradient>
    </defs>
    <g id="页面-1" stroke="none" stroke-width="1" fill="none" fill-rule="evenodd">
        <g id="BSV首页" transform="translate(-1076.000000, -485.000000)">
            <g id="企业优势" transform="translate(360.000000, 460.000000)">
                <g id="ts" transform="translate(715.000000, 24.000000)">
                    <rect id="矩形备份-6" x="0" y="0" width="40" height="40"></rect>
                    <g transform="translate(1.000000, 1.000000)" id="椭圆形">
                        <path d="M0.284041952,16.2255718 L15.2,35.1096205 L28.1293052,30.4315009 L29.7690718,34.1985252 C26.651138,36.5832468 22.7535192,38 18.525,38 C8.29392501,38 0,29.706075 0,19.475 C0,18.3664182 0.0973762477,17.2805799 0.284041952,16.2255718 Z M18.525,0.95 C28.756075,0.95 37.05,9.24392501 37.05,19.475 C37.05,23.6543032 35.6660343,27.5103638 33.331399,30.609886 L26.125,14.25 L12.4368188,5.7 L6.13842901,5.69986119 C9.42019279,2.74698008 13.7627428,0.95 18.525,0.95 Z" id="形状结合" fill="#44BAFA" transform="translate(18.525000, 19.475000) scale(-1, 1) translate(-18.525000, -19.475000) "></path>
                        <path d="M19.4557364,0 C21.9471629,0 24.2909018,0.475168979 26.486953,1.42550694 C28.6830043,2.3758449 30.5965226,3.66650658 32.227508,5.297492 C33.8584934,6.92847741 35.1491551,8.84199573 36.0994931,11.038047 C37.049831,13.2340982 37.525,15.5778371 37.525,18.0692636 C37.525,20.5606901 37.049831,22.904429 36.0994931,25.1004803 C35.1491551,27.2965315 33.8584934,29.2100498 32.227508,30.8410352 C30.5965226,32.4720206 28.6830043,33.7562611 26.486953,34.6937567 C24.2909018,35.6312522 21.9471629,36.1 19.4557364,36.1 C17.2468428,36.1 15.159952,35.7275703 13.195064,34.9827108 C11.2301761,34.2378513 9.45150302,33.2104589 7.85904482,31.9005336 L12.2511473,22.5384205 C12.7905283,23.411704 13.2913821,24.2207755 13.7537086,24.965635 C14.1389808,25.6077552 14.5242529,26.2177695 14.9095251,26.7956777 C15.2947972,27.3735859 15.5644877,27.7652793 15.7185966,27.9707577 C16.0011295,28.3303451 16.2643988,28.6642476 16.5084045,28.9724653 C16.7524102,29.280683 17.0927339,29.4604767 17.5293757,29.5118463 C18.0687567,29.5889007 18.4540288,29.4925827 18.6851921,29.2228922 C18.9163554,28.9532017 19.1732035,28.6000356 19.4557364,28.1633938 C19.5327908,28.0606546 19.6804785,27.7909641 19.8987994,27.3543223 C20.1171202,26.9176805 20.3803895,26.3782995 20.6886073,25.7361793 C20.996825,25.0940591 21.3435699,24.3813056 21.728842,23.5979189 C22.1141142,22.8145322 22.4993863,22.0118819 22.8846585,21.189968 C23.7836268,19.2892921 24.7853344,17.1702953 25.8897812,14.8329776 L29.973666,17.0290288 L28.3169957,5.12411953 L17.8375934,11.5581644 L22.4223319,13.1377801 L17.5679029,23.1163287 C16.8230434,21.9091427 16.1809232,20.8560655 15.6415422,19.9570971 C15.4103789,19.571825 15.1856368,19.2058164 14.9673159,18.8590715 C14.748995,18.5123266 14.5627801,18.2105301 14.4086713,17.953682 L14.0619264,17.3757737 C14.1646656,17.5812522 14.1710868,17.6133582 14.08119,17.4720918 C13.9912931,17.3308253 13.8436055,17.1317681 13.638127,16.87492 C13.4326485,16.6180719 13.2014852,16.3612238 12.9446371,16.1043757 C12.687789,15.8475276 12.4437834,15.7191035 12.2126201,15.7191035 C11.6218694,15.7191035 11.1980701,15.8667912 10.941222,16.1621665 C10.6843739,16.4575418 10.4788954,16.7978655 10.3247866,17.1831377 C10.2734169,17.2858769 10.1449929,17.5619886 9.93951441,18.0114728 C9.73403593,18.460957 9.46434543,19.0196016 9.1304429,19.6874066 C8.79654038,20.3552117 8.43695304,21.1000711 8.0516809,21.9219851 L6.81881003,24.3106724 C6.43353789,25.1325863 6.06110815,25.915973 5.70152081,26.6608324 C5.34193348,27.4056919 5.03371576,28.0349698 4.77686766,28.548666 C3.69810566,27.058947 2.86977054,25.4279616 2.29186233,23.6557097 C1.71395411,21.8834578 1.425,20.0213091 1.425,18.0692636 C1.425,15.5778371 1.89374778,13.2340982 2.83124333,11.038047 C3.76873888,8.84199573 5.05297937,6.92847741 6.68396478,5.297492 C8.3149502,3.66650658 10.2284685,2.3758449 12.4245197,1.42550694 C14.620571,0.475168979 16.9643099,0 19.4557364,0 Z" id="蒙版" fill="url(#radialGradient-1)"></path>
                    </g>
                </g>
            </g>
        </g>
    </g>
</svg>