<?xml version="1.0" encoding="UTF-8"?>
<svg width="24.6199345px" height="20px" viewBox="0 0 24.6199345 20" version="1.1" xmlns="http://www.w3.org/2000/svg" xmlns:xlink="http://www.w3.org/1999/xlink">
    <title>推特</title>
    <g id="页面-1" stroke="none" stroke-width="1" fill="none" fill-rule="evenodd">
        <g id="BSV首页h5" transform="translate(-281.000000, -3821.000000)">
            <g id="底部" transform="translate(0.000000, 3740.000000)">
                <g id="icon" transform="translate(68.000000, 76.000000)">
                    <g id="推特" transform="translate(210.000000, 0.000000)">
                        <rect id="矩形" x="0" y="0" width="30" height="30"></rect>
                        <path d="M27.6199345,7.36767614 C26.7139873,7.76872279 25.742052,8.0406964 24.720441,8.16238822 C25.7631623,7.538896 26.5638285,6.547425 26.9393362,5.36967645 C25.9643253,5.94794638 24.8827295,6.36712623 23.7320455,6.59542757 C22.8110652,5.61443793 21.4995934,5 20.0467957,5 C17.2571595,5 14.9961175,7.26106661 14.9961175,10.0493004 C14.9961175,10.4443437 15.0411922,10.8304803 15.1268882,11.1999845 C10.9310544,10.9881433 7.20980891,8.9781614 4.71906311,5.92238271 C4.28339854,6.66911684 4.0354139,7.53737054 4.0354139,8.4612787 C4.0354139,10.2129915 4.81733186,11.7588664 6.17242669,12.6646413 C5.3446467,12.6377245 3.77549629,12.4108256 3.77549629,12.0322178 C3.77549629,12.0533035 3.77549629,12.0728392 3.77549629,12.0952781 C3.77549629,14.5410968 5.62707704,16.5826211 7.93614622,17.0469003 C7.51251301,17.1625887 7.12086512,17.2241236 6.65966146,17.2241236 C6.33353424,17.2241236 6.04542037,17.1910557 5.73592552,17.1324487 C6.37895339,19.1395273 8.25686052,20.5983284 10.4667014,20.6403276 C8.7391499,21.9939216 6.56749454,22.8021659 4.2015407,22.8021659 C3.79279296,22.8021659 3.39516628,22.7766269 3,22.7315522 C5.23550296,24.1632887 7.8902104,25 10.7430792,25 C20.031738,25 25.1117444,17.3052186 25.1117444,10.6321713 C25.1117444,10.4128013 25.1077093,10.1949813 25.0972526,9.97868671 C26.0842702,9.26659515 26.9391639,8.3771081 27.6166867,7.36457601 L27.6199345,7.36767614 Z" id="路径" fill="#FFFFFF" fill-rule="nonzero"></path>
                    </g>
                </g>
            </g>
        </g>
    </g>
</svg>