<?xml version="1.0" encoding="UTF-8"?>
<svg width="138px" height="36px" viewBox="0 0 138 36" version="1.1" xmlns="http://www.w3.org/2000/svg" xmlns:xlink="http://www.w3.org/1999/xlink">
    <title>logo</title>
    <g id="页面-1" stroke="none" stroke-width="1" fill="none" fill-rule="evenodd">
        <g id="BSV首页" transform="translate(-360.000000, -62.000000)">
            <g id="nav2" transform="translate(0.000000, 50.000000)">
                <g id="logo" transform="translate(360.000000, 0.000000)">
                    <rect id="矩形" x="0" y="0" width="180" height="60"></rect>
                    <g id="BSV-Blockchain-Logo" transform="translate(0.000000, 12.000000)">
                        <polygon id="路径" fill="#FFFFFF" points="0 0 36 0 36 36 0 36"></polygon>
                        <path d="M10.7270602,22.6773816 C11.5470485,22.1127995 11.9637639,21.2659264 11.9637639,20.1367621 C11.9772063,19.6125073 11.842782,19.0882525 11.5873758,18.6312098 C11.345412,18.1876096 10.8749269,17.8381064 10.1893629,17.5827002 C11.0227937,17.0853302 11.4260666,16.4132086 11.4260666,15.552893 C11.4395091,15.0555231 11.3185272,14.5581531 11.0765634,14.1145529 C10.8345996,13.7247224 10.5119813,13.402104 10.1087084,13.1735827 C9.65166569,12.9181765 9.1408533,12.7434249 8.63004091,12.6627703 C8.01168907,12.5552309 7.3798948,12.5149036 6.74810053,12.5149036 C6.23728814,12.5149036 5.69959088,12.5417884 5.1081239,12.5821157 C4.55698422,12.622443 4.01928697,12.6896552 3.48158971,12.7971946 L3.48158971,23.2285213 C4.08649912,23.3629456 4.69140853,23.4436002 5.30976037,23.4839275 C5.88778492,23.5242548 6.4792519,23.5376973 7.07071888,23.5376973 C8.68381064,23.5376973 9.90707189,23.2554062 10.7270602,22.6773816 Z M7.35300994,18.7118644 C8.05201636,18.7118644 8.57627119,18.8194039 8.95265926,19.0344828 C9.32904734,19.2495617 9.51724138,19.5990649 9.51724138,20.0964348 C9.51724138,20.6610169 9.28872005,21.037405 8.84511981,21.2390415 C8.40151958,21.440678 7.8100526,21.5482174 7.09760374,21.5482174 C6.85563998,21.5482174 6.62711864,21.5482174 6.41203974,21.534775 C6.21040327,21.5213326 6.0087668,21.5078901 5.8340152,21.4944477 L5.8340152,18.7118644 L7.35300994,18.7118644 L7.35300994,18.7118644 Z M5.8340152,14.5178258 C6.02220923,14.490941 6.23728814,14.490941 6.46580947,14.4774985 C6.70777323,14.4774985 6.92285213,14.4640561 7.13793103,14.4640561 C7.78316774,14.4640561 8.26709527,14.5581531 8.58971362,14.7329047 C8.91233197,14.9076563 9.08708358,15.2168323 9.08708358,15.6469901 C9.08708358,16.0771479 8.9257744,16.3728814 8.60315605,16.5745178 C8.2805377,16.7761543 7.75628288,16.8568089 7.00350672,16.8568089 L5.82057276,16.8568089 L5.8340152,14.5178258 L5.8340152,14.5178258 Z M15.0958504,21.3465809 C14.679135,21.2255991 14.2893045,21.0777323 13.9129164,20.8760959 L13.2273524,22.7983635 C13.402104,22.8924605 13.5768556,22.9865576 13.7650497,23.0672122 C14.0070134,23.1747516 14.2624196,23.2554062 14.5312683,23.3360608 C14.867329,23.4301578 15.2033898,23.49737 15.552893,23.5511397 C15.9830508,23.6183518 16.4132086,23.6452367 16.8433665,23.6317943 C18.2548217,23.6317943 19.3167738,23.3495032 20.0292227,22.7983635 C20.7282291,22.2472238 21.0777323,21.4675628 21.0777323,20.4593805 C21.0911748,20.0157802 21.0239626,19.5587376 20.8760959,19.1420222 C20.7416715,18.7790766 20.5400351,18.4564582 20.257744,18.201052 C19.9485681,17.9053185 19.5990649,17.6767972 19.2226768,17.5020456 C18.8059614,17.3004091 18.3220339,17.0987726 17.7708942,16.8836937 C17.5020456,16.7895967 17.2600818,16.6954997 17.0315605,16.6148451 C16.829924,16.5341905 16.6282876,16.4400935 16.4400935,16.3191116 C16.2787843,16.2250146 16.14436,16.1040327 16.050263,15.956166 C15.956166,15.8082992 15.9023963,15.6335476 15.9158387,15.458796 C15.9023963,15.1630625 16.050263,14.8807715 16.2922268,14.7194623 C16.547633,14.5581531 16.9643483,14.4774985 17.5423729,14.4774985 C17.9859731,14.4640561 18.4430158,14.5312683 18.8731736,14.6522501 C19.2226768,14.7597896 19.5587376,14.8942139 19.8679135,15.0689655 L20.5669199,13.1601403 C19.5856224,12.6493279 18.4967855,12.3939217 17.3810637,12.4208065 C16.829924,12.4073641 16.2653419,12.4880187 15.7410871,12.6493279 C15.2840444,12.7837522 14.867329,12.9988311 14.5043834,13.2945646 C14.1683226,13.5634132 13.899474,13.9129164 13.71128,14.3161894 C13.5230859,14.7329047 13.4289889,15.1899474 13.4289889,15.6604325 C13.4155465,16.0905903 13.5096435,16.5341905 13.6978375,16.924021 C13.8591467,17.2600818 14.1011105,17.5558153 14.3834015,17.8112215 C14.6656926,18.0531853 14.9883109,18.2682642 15.3243717,18.4161309 C15.6738749,18.5774401 16.0233781,18.7118644 16.3728814,18.8462887 C17.1794272,19.1151373 17.7440094,19.3705435 18.0800701,19.5990649 C18.3892461,19.7872589 18.5774401,20.1233197 18.5774401,20.4728229 C18.5774401,20.6206897 18.5505552,20.7819988 18.4967855,20.9164231 C18.4430158,21.0642899 18.3489188,21.1852718 18.2144944,21.2659264 C18.0531853,21.3734658 17.8649912,21.4541204 17.6767972,21.4944477 C17.3945061,21.5616598 17.1122151,21.5885447 16.829924,21.5751023 C16.238457,21.5616598 15.6604325,21.4944477 15.0958504,21.3465809 L15.0958504,21.3465809 Z M28.2963179,23.4032729 C28.7264757,22.50263 29.1431911,21.5616598 29.5599065,20.5938048 C29.9766219,19.6259497 30.3664524,18.6580947 30.7428404,17.7036821 C31.1192285,16.7492694 31.4552893,15.8486265 31.7779077,14.9748685 C32.0870836,14.1011105 32.3693746,13.3348919 32.6113384,12.6493279 L30.0303916,12.6493279 C29.8287551,13.2811222 29.6002338,13.9532437 29.35827,14.6656926 C29.1163063,15.3781414 28.8609001,16.1040327 28.6054939,16.8164816 C28.3500877,17.5289305 28.1081239,18.2144944 27.8661601,18.8597312 C27.6241964,19.5184103 27.4091175,20.06955 27.207481,20.5534775 C26.9924021,20.0829924 26.7638808,19.5184103 26.5353594,18.8597312 L25.7960257,16.8164816 C25.5406195,16.1040327 25.2852133,15.3915839 25.0432496,14.6656926 C24.8012858,13.9532437 24.5727645,13.2811222 24.371128,12.6493279 L21.6960842,12.6493279 C21.9246055,13.3348919 22.1934541,14.1011105 22.5160725,14.9748685 C22.8386908,15.8486265 23.1747516,16.7492694 23.5511397,17.7036821 C23.9275278,18.6580947 24.3173583,19.6125073 24.7340736,20.5938048 C25.150789,21.5616598 25.5675044,22.50263 25.9976622,23.4032729 L28.2963179,23.4032729 L28.2963179,23.4032729 Z" id="BSV" fill="#00368C" fill-rule="nonzero"></path>
                        <path d="M47.559322,22.5832846 C48.3793103,22.0187025 48.7960257,21.1718293 48.7960257,20.0426651 C48.8094681,19.5184103 48.6750438,18.9941555 48.4196376,18.5371128 C48.1776739,18.0935126 47.7071888,17.7440094 47.0216248,17.4886032 C47.8550555,16.9912332 48.2583285,16.3191116 48.2583285,15.458796 C48.2717709,14.9614261 48.150789,14.4640561 47.9088252,14.0204559 C47.6668615,13.6306254 47.3442431,13.308007 46.9409702,13.0794857 C46.4839275,12.8240795 45.9731151,12.6493279 45.4623027,12.5686733 C44.8439509,12.4611338 44.2121566,12.4208065 43.5803624,12.4208065 C43.06955,12.4208065 42.5318527,12.4476914 41.9403857,12.4880187 C41.3892461,12.528346 40.8515488,12.5955582 40.3138515,12.7030976 L40.3138515,23.1344243 C40.918761,23.2688486 41.5236704,23.3495032 42.1420222,23.3898305 C42.7200468,23.4301578 43.3115137,23.4436002 43.9029807,23.4436002 C45.5160725,23.4436002 46.7393337,23.1613092 47.559322,22.5832846 Z M44.1852718,18.6177674 C44.8842782,18.6177674 45.408533,18.7253068 45.7849211,18.9403857 C46.1613092,19.1554646 46.3495032,19.5049679 46.3495032,20.0023378 C46.3495032,20.5669199 46.1209819,20.943308 45.6773816,21.1449445 C45.2337814,21.3465809 44.6423144,21.4541204 43.9298656,21.4541204 C43.6879018,21.4541204 43.4593805,21.4541204 43.2443016,21.440678 C43.0292227,21.4272355 42.8410286,21.4137931 42.666277,21.4003507 L42.666277,18.6177674 L44.1852718,18.6177674 L44.1852718,18.6177674 Z M42.666277,14.4237288 C42.8544711,14.396844 43.06955,14.396844 43.2980713,14.3834015 C43.5265926,14.3699591 43.755114,14.3699591 43.9701929,14.3699591 C44.6154296,14.3699591 45.0993571,14.4640561 45.4219755,14.6388077 C45.7445938,14.8135593 45.9193454,15.1227352 45.9193454,15.552893 C45.9193454,15.9830508 45.7580362,16.2787843 45.4354179,16.4804208 C45.1127995,16.6820573 44.5885447,16.7627119 43.8357686,16.7627119 L42.6528346,16.7627119 L42.6528346,14.4237288 L42.666277,14.4237288 Z M53.1513735,21.2255991 L53.1513735,12.5552309 L50.7317358,12.5552309 L50.7317358,23.3091759 L57.9099942,23.3091759 L57.9099942,21.2255991 L53.1513735,21.2255991 L53.1513735,21.2255991 Z M61.3781414,16.4938632 C61.4856809,16.0905903 61.6873174,15.7142022 61.9427236,15.3915839 C62.1846873,15.0958504 62.4938632,14.8404442 62.829924,14.679135 C63.2063121,14.5043834 63.6230275,14.4102864 64.0397428,14.4237288 C64.4564582,14.4237288 64.8597312,14.5043834 65.2361192,14.6656926 C65.5856224,14.8270018 65.8947984,15.0689655 66.1367621,15.3781414 C66.3921683,15.7007598 66.5803624,16.0771479 66.7013442,16.4804208 C66.8357686,16.9509059 66.9029807,17.4348334 66.8895383,17.918761 C66.8895383,18.4026885 66.8357686,18.886616 66.7013442,19.3436587 C66.5803624,19.7334892 66.3921683,20.1098773 66.1367621,20.4324956 C65.8947984,20.7416715 65.5856224,20.9836353 65.2361192,21.1449445 C64.4699006,21.4810053 63.5961426,21.4810053 62.829924,21.1449445 C62.4804208,20.9836353 62.1712449,20.7416715 61.9427236,20.4324956 C61.6873174,20.1098773 61.4991233,19.7334892 61.3781414,19.3436587 C61.1227352,18.4161309 61.1227352,17.4348334 61.3781414,16.4938632 L61.3781414,16.4938632 Z M68.9731151,15.4856809 C68.7177089,14.8270018 68.3278784,14.2220923 67.8305085,13.7247224 C67.3465809,13.2542373 66.7685564,12.8778492 66.1233197,12.6493279 C65.4511981,12.4073641 64.7521917,12.2863822 64.0397428,12.2863822 C63.3407364,12.2863822 62.6551724,12.4073641 61.9964933,12.6493279 C61.364699,12.8778492 60.773232,13.2407949 60.2893045,13.7247224 C59.7784921,14.2220923 59.3886616,14.8270018 59.119813,15.4856809 C58.8106371,16.2653419 58.6627703,17.0853302 58.6896552,17.918761 C58.6762127,18.7521917 58.8106371,19.57218 59.1063705,20.351841 C59.3617767,21.0105202 59.7516072,21.6154296 60.2489772,22.0993571 C60.7329047,22.5698422 61.3243717,22.9327878 61.956166,23.1613092 C62.6282876,23.4032729 63.327294,23.5242548 64.0397428,23.5242548 C64.7656341,23.5242548 65.478083,23.4032729 66.163647,23.1613092 C66.7954413,22.9327878 67.3869082,22.5698422 67.8573933,22.0993571 C68.3547633,21.6019871 68.7311514,20.9970777 68.9865576,20.351841 C69.2688486,19.57218 69.4167154,18.7521917 69.4032729,17.918761 C69.4032729,17.0853302 69.2688486,16.2653419 68.9731151,15.4856809 L68.9731151,15.4856809 Z M78.4634717,23.2688486 C78.974284,23.1478667 79.4582116,22.9596727 79.9018118,22.7042665 L79.2296902,20.7685564 C79.0952659,20.8357686 78.9473992,20.9029807 78.78609,20.9701929 C78.597896,21.0508475 78.4097019,21.1180596 78.2080655,21.1583869 C77.9661017,21.2255991 77.7106955,21.2659264 77.4687317,21.3062537 C77.1595558,21.3465809 76.8369375,21.3734658 76.5277615,21.3734658 C76.043834,21.3869082 75.5464641,21.2928112 75.1028638,21.1046172 C74.7264757,20.943308 74.4038574,20.6879018 74.1484512,20.3652835 C73.893045,20.0426651 73.7182934,19.6528346 73.6241964,19.2630041 C73.5166569,18.8059614 73.4628872,18.3489188 73.4628872,17.8784337 C73.4494448,17.3407364 73.5300994,16.8030392 73.704851,16.2922268 C73.8527177,15.8889538 74.0677966,15.5394506 74.3635301,15.2302747 C74.6323787,14.9614261 74.9549971,14.7597896 75.3045003,14.6388077 C75.6540035,14.5178258 76.0303916,14.4506137 76.3933372,14.4506137 C76.9041496,14.4371712 77.4015196,14.5043834 77.8854471,14.6388077 C78.28872,14.7463472 78.6785506,14.8942139 79.0414962,15.0824079 L79.7405026,13.1332554 C79.659848,13.0794857 79.5254237,13.0122735 79.3372297,12.9181765 C79.1087084,12.8106371 78.880187,12.71654 78.6382233,12.6493279 C78.3156049,12.5552309 77.9929866,12.4745763 77.6569258,12.4208065 C77.2536528,12.3535944 76.8369375,12.3132671 76.4202221,12.3132671 C75.6808884,12.2998247 74.9281122,12.434249 74.2291058,12.6896552 C73.5838691,12.9181765 72.9789597,13.2945646 72.4950321,13.7784921 C71.9976622,14.2758621 71.6078317,14.8807715 71.3524255,15.552893 C71.056692,16.3191116 70.9222677,17.1256575 70.9357101,17.9322034 C70.9357101,19.7200468 71.3927528,21.1046172 72.3068381,22.0724722 C73.2209234,23.0403273 74.5517241,23.5376973 76.2992402,23.5242548 C77.0385739,23.5242548 77.7644652,23.4436002 78.4634717,23.2688486 L78.4634717,23.2688486 Z M90.6826417,23.3091759 C89.9836353,22.1800117 89.2174167,21.0911748 88.383986,20.0561075 C87.6446523,19.1285798 86.8112215,18.2682642 85.8971362,17.5020456 C86.7171245,16.6820573 87.4967855,15.8755114 88.2361192,15.0689655 C88.975453,14.2624196 89.7147867,13.4289889 90.440678,12.5552309 L87.5639977,12.5552309 C87.0263004,13.1735827 86.421391,13.8322618 85.7895967,14.5447107 C85.14436,15.2571596 84.5125658,15.9427236 83.8942139,16.6014027 L83.8942139,12.5552309 L81.4745763,12.5552309 L81.4745763,23.3091759 L83.8942139,23.3091759 L83.8942139,18.7521917 C84.2840444,19.0613676 84.6604325,19.3974284 85.0099357,19.7603741 C85.3863238,20.1367621 85.735827,20.5400351 86.0853302,20.943308 C86.421391,21.3600234 86.7440094,21.7632963 87.0397428,22.1665693 C87.3354763,22.5698422 87.5908825,22.9462303 87.8059614,23.2957335 L90.6826417,23.3091759 L90.6826417,23.3091759 Z M98.2776154,23.2688486 C98.7884278,23.1478667 99.2723553,22.9596727 99.7159556,22.7042665 L99.043834,20.7685564 C98.9094097,20.8357686 98.761543,20.9029807 98.6002338,20.9701929 C98.4120397,21.0508475 98.2238457,21.1180596 98.0222092,21.1583869 C97.7802455,21.2255991 97.5248393,21.2659264 97.2828755,21.3062537 C96.9736996,21.3465809 96.6510812,21.3734658 96.3419053,21.3734658 C95.8579778,21.3869082 95.3606078,21.2928112 94.9170076,21.1046172 C94.5406195,20.943308 94.2180012,20.6879018 93.962595,20.3652835 C93.7071888,20.0426651 93.5324372,19.6528346 93.4383402,19.2630041 C93.3308007,18.8059614 93.277031,18.3489188 93.277031,17.8784337 C93.2635885,17.3407364 93.3442431,16.8030392 93.5189947,16.2922268 C93.6668615,15.8889538 93.8819404,15.5394506 94.1776739,15.2302747 C94.4465225,14.9614261 94.7691409,14.7597896 95.1186441,14.6388077 C95.4681473,14.5178258 95.8445354,14.4506137 96.207481,14.4506137 C96.7182934,14.4371712 97.2156634,14.5043834 97.6995909,14.6388077 C98.1028638,14.7463472 98.4926943,14.8942139 98.85564,15.0824079 L99.5546464,13.1332554 C99.4739918,13.0794857 99.3395675,13.0122735 99.1513735,12.9181765 C98.9228521,12.8106371 98.6943308,12.71654 98.452367,12.6493279 C98.1297487,12.5552309 97.8071303,12.4745763 97.4710695,12.4208065 C97.0677966,12.3535944 96.6510812,12.3132671 96.2343659,12.3132671 C95.4950321,12.2998247 94.742256,12.434249 94.0432496,12.6896552 C93.3980129,12.9181765 92.7931034,13.2945646 92.3091759,13.7784921 C91.811806,14.2758621 91.4219755,14.8807715 91.1665693,15.552893 C90.8708358,16.3191116 90.7364115,17.1256575 90.7498539,17.9322034 C90.7498539,19.7200468 91.2068966,21.1046172 92.1209819,22.0724722 C93.0350672,23.0403273 94.3658679,23.5376973 96.113384,23.5242548 C96.8527177,23.5242548 97.578609,23.4436002 98.2776154,23.2688486 L98.2776154,23.2688486 Z M107.75453,16.6686148 L103.694915,16.6686148 L103.694915,12.5552309 L101.275278,12.5552309 L101.275278,23.3091759 L103.694915,23.3091759 L103.694915,18.7521917 L107.75453,18.7521917 L107.75453,23.3091759 L110.174167,23.3091759 L110.174167,12.5552309 L107.75453,12.5552309 L107.75453,16.6686148 Z M122.460549,23.2957335 C122.057276,22.1396844 121.667446,21.0642899 121.3045,20.0829924 C120.941555,19.1016949 120.578609,18.1741672 120.242548,17.3004091 C119.893045,16.4266511 119.543542,15.6066628 119.207481,14.8270018 C118.857978,14.0473407 118.521917,13.2811222 118.158971,12.5417884 L115.873758,12.5417884 C115.510812,13.2811222 115.161309,14.0473407 114.825248,14.8270018 C114.489188,15.6066628 114.139684,16.4266511 113.803624,17.3004091 C113.45412,18.1741672 113.104617,19.0882525 112.741672,20.0829924 C112.378726,21.0642899 111.988895,22.1396844 111.585622,23.2957335 L114.099357,23.2957335 C114.220339,22.9193454 114.341321,22.5429573 114.475745,22.1531268 C114.610169,21.7632963 114.744594,21.3600234 114.879018,20.9701929 L119.073057,20.9701929 C119.207481,21.3600234 119.341905,21.7498539 119.489772,22.1531268 C119.624196,22.5429573 119.758621,22.9327878 119.879603,23.3091759 L122.460549,23.3091759 L122.460549,23.2957335 Z M117.218001,15.6201052 C117.325541,15.8889538 117.446523,16.1981297 117.580947,16.547633 C117.715371,16.8971362 117.863238,17.2869667 118.024547,17.7171245 C118.172414,18.1472823 118.333723,18.5908825 118.508475,19.0479252 L115.430158,19.0479252 C115.604909,18.5908825 115.766219,18.1338399 115.927528,17.7171245 C116.088837,17.2869667 116.236704,16.9105786 116.371128,16.547633 C116.505552,16.1981297 116.626534,15.8889538 116.720631,15.6201052 C116.814728,15.3512566 116.908825,15.1361777 116.962595,14.9883109 C117.029807,15.1361777 117.110462,15.3512566 117.218001,15.6201052 L117.218001,15.6201052 Z M123.84512,23.2957335 L126.264757,23.2957335 L126.264757,12.5417884 L123.84512,12.5417884 L123.84512,23.2957335 L123.84512,23.2957335 Z M138,23.2957335 L138,12.5417884 L135.593805,12.5417884 L135.593805,18.886616 C135.217417,18.3220339 134.827586,17.7440094 134.397428,17.1390999 C133.967271,16.5341905 133.550555,15.956166 133.120397,15.3915839 C132.69024,14.8270018 132.273524,14.3027469 131.856809,13.805377 C131.440094,13.308007 131.063705,12.8912916 130.727645,12.5552309 L128.751607,12.5552309 L128.751607,23.3091759 L131.14436,23.3091759 L131.14436,16.2653419 C132.071888,17.3541788 132.932203,18.4833431 133.725307,19.666277 C134.531853,20.8626534 135.284629,22.0859147 135.970193,23.3091759 L138,23.2957335 L138,23.2957335 Z" id="BLOCKCHAIN" fill="#FFFFFF"></path>
                    </g>
                </g>
            </g>
        </g>
    </g>
</svg>