<?xml version="1.0" encoding="UTF-8"?>
<svg width="36.2222805px" height="38px" viewBox="0 0 36.2222805 38" version="1.1" xmlns="http://www.w3.org/2000/svg" xmlns:xlink="http://www.w3.org/1999/xlink">
    <title>qw</title>
    <defs>
        <radialGradient cx="70.6448581%" cy="50%" fx="70.6448581%" fy="50%" r="86.8767424%" gradientTransform="translate(0.706449,0.500000),scale(1.000000,0.953218),rotate(90.000000),translate(-0.706449,-0.500000)" id="radialGradient-1">
            <stop stop-color="#448CFF" offset="0%"></stop>
            <stop stop-color="#002247" offset="100%"></stop>
        </radialGradient>
        <path d="M34.8324795,2.74410891 C31.3721585,3.24755725 22.3691787,4.11972831 18.5023173,0.352138415 C18.0366866,-0.10167417 17.2968776,-0.122946635 16.8241561,0.323775128 C15.3658105,1.69939453 11.4280409,3.88336759 1.2787115,3.4271914 C0.583810981,3.3964645 0,3.94718498 0,4.64444911 L0,14.4392374 C0,17.2377483 1.18653082,29.9634096 16.7367027,37.7869494 C17.2951565,38.0676545 17.9527269,38.0711522 18.5141353,37.7964039 C35.9717382,29.2543274 36.2222805,16.9895696 36.2222805,14.4392374 L36.2222805,3.94954859 C36.2222805,3.20973953 35.5651977,2.63774659 34.8324795,2.74410891 L34.8324795,2.74410891 Z M25.772773,16.1812159 L22.7662647,19.1120889 C22.5889941,19.2846322 22.5086315,19.5328109 22.5511764,19.7738989 L23.2602586,23.9125751 C23.3642573,24.5247494 22.7237197,24.99038 22.1729993,24.7020199 L18.4574087,22.7473168 C18.2399569,22.6315 17.9775965,22.6315 17.7601446,22.7473168 L14.0445541,24.7020199 C13.4961972,24.99038 12.853296,24.5247494 12.9572947,23.9125751 L13.6663769,19.7738989 C13.7089218,19.5304473 13.6285592,19.2822686 13.4512886,19.1120889 L10.4447803,16.1812159 C10.0004221,15.7486758 10.2462373,14.9923215 10.8607751,14.904868 L15.0159966,14.3021482 C15.2594482,14.2666941 15.4698092,14.1130596 15.5785351,13.8932441 L17.4363304,10.1280178 C17.7105088,9.57257015 18.5046809,9.57257015 18.7788593,10.1280178 L20.6366546,13.8932441 C20.7453805,14.1130596 20.9557415,14.2666941 21.1991931,14.3021482 L25.3544146,14.904868 C25.971316,14.9923215 26.2171312,15.7463122 25.772773,16.1812159 Z" id="path-2"></path>
    </defs>
    <g id="页面-1" stroke="none" stroke-width="1" fill="none" fill-rule="evenodd">
        <g id="BSV首页" transform="translate(-484.859051, -485.000000)">
            <g id="企业优势" transform="translate(360.000000, 460.000000)">
                <g id="qw" transform="translate(122.859051, 24.000000)">
                    <rect id="矩形" x="0" y="0" width="40" height="40"></rect>
                    <g id="路径" transform="translate(2.000000, 1.000000)">
                        <mask id="mask-3" fill="white">
                            <use xlink:href="#path-2"></use>
                        </mask>
                        <use id="蒙版" fill="url(#radialGradient-1)" xlink:href="#path-2"></use>
                        <path d="M15.0970397,0.706679497 C14.9599504,0.593226351 14.8275884,0.47504599 14.6999536,0.352138415 C14.234323,-0.10167417 13.494514,-0.122946635 13.0217925,0.323775128 C11.5634469,1.69939453 7.62567726,3.88336759 -2.52365211,3.4271914 C-3.21855263,3.3964645 -3.80236361,3.94718498 -3.80236361,4.64444911 L-3.80236361,13.9026986 C4.33080881,12.6263507 11.2301783,7.62732141 15.0970397,0.706679497 L15.0970397,0.706679497 Z" fill="#44BAFA" fill-rule="nonzero" mask="url(#mask-3)"></path>
                    </g>
                </g>
            </g>
        </g>
    </g>
</svg>