<?xml version="1.0" encoding="UTF-8"?>
<svg width="14px" height="9.8px" viewBox="0 0 14 9.8" version="1.1" xmlns="http://www.w3.org/2000/svg" xmlns:xlink="http://www.w3.org/1999/xlink">
    <title>档案</title>
    <g id="页面-1" stroke="none" stroke-width="1" fill="none" fill-rule="evenodd">
        <g id="BSV首页" transform="translate(-1536.000000, -20.100000)">
            <g id="编组-13" transform="translate(1470.000000, 13.000000)">
                <g id="档案" transform="translate(66.000000, 5.000000)">
                    <rect id="矩形" x="0" y="0" width="14" height="14"></rect>
                    <path d="M4.48815266,6.9992003 C5.84080275,7.03342701 6.96517702,5.96473671 6.99918653,4.61201592 C7.03371132,3.25929512 5.96498892,2.13543346 4.61182354,2.10120678 C4.59121693,2.10060609 4.57060345,2.10026549 4.5499881,2.10018506 C3.21434276,2.08383797 2.11779442,3.15252827 2.1007897,4.48839113 C2.06678022,5.84060105 3.13550259,6.96497359 4.48815266,6.9992003 Z M0,11.9 L8.4,11.9 C8.4,9.19278951 6.5193038,7 4.20047469,7 C1.88022152,7 0,9.19227969 0,11.9 Z M9.94192602,3.50019564 C9.48785692,3.49116753 9.11111279,3.79573342 9.10041668,4.18048506 C9.09322758,4.37196876 9.17932636,4.55752496 9.33849732,4.69358572 C9.49766828,4.82964649 9.71589044,4.90422657 9.94192602,4.89981482 L13.1586206,4.89981482 C13.6126871,4.9085893 13.98919,4.60382582 13.9996004,4.21907668 C14.0066347,4.02774925 13.9205416,3.8423839 13.7615043,3.70643662 C13.602467,3.57048933 13.3844705,3.49591473 13.1586206,3.50019564 L9.94192602,3.50019564 Z M9.90682499,7.00018486 C9.47140649,6.99141034 9.11036601,7.29617475 9.10038318,7.68092505 C9.09363777,7.87225305 9.17619513,8.05761896 9.32870099,8.19356664 C9.48120685,8.32951433 9.69025052,8.40408916 9.90682499,8.39980824 L13.1926668,8.39980824 C13.4018504,8.40414274 13.6044094,8.33484572 13.7557543,8.20717165 C13.9070992,8.07949759 13.9948236,7.90391243 13.9996165,7.71906805 C14.0063678,7.52766036 13.923742,7.34222233 13.7711241,7.2062604 C13.6185062,7.07029848 13.4093284,6.99577883 13.1926668,7.00018486 L9.90682499,7.00018486 Z M9.87586877,10.5001918 C9.67483777,10.4958573 9.4801731,10.5651543 9.33472662,10.6928283 C9.18928015,10.8205024 9.1049747,10.9960876 9.10036859,11.1809319 C9.09388032,11.3723396 9.17328598,11.5577777 9.31995584,11.6937396 C9.4666257,11.8297015 9.66765118,11.9042212 9.87586877,11.8998151 L13.2246196,11.8998151 C13.6430684,11.9085897 13.990038,11.6038252 13.9996318,11.2190749 C14.0061143,11.0277469 13.9267744,10.842381 13.7802122,10.7064334 C13.63365,10.5704857 13.4327535,10.4959108 13.2246196,10.5001918 L9.87586877,10.5001918 Z" id="形状" fill="#333333" fill-rule="nonzero"></path>
                </g>
            </g>
        </g>
    </g>
</svg>