<?xml version="1.0" encoding="UTF-8"?>
<svg width="14px" height="14px" viewBox="0 0 14 14" version="1.1" xmlns="http://www.w3.org/2000/svg" xmlns:xlink="http://www.w3.org/1999/xlink">
    <title>dingdan</title>
    <g id="页面-1" stroke="none" stroke-width="1" fill="none" fill-rule="evenodd" opacity="0.600000024">
        <g id="0首页【美衣网】" transform="translate(-1220.000000, -13.000000)">
            <g id="dingdan" transform="translate(1220.000000, 13.000000)">
                <rect id="矩形" x="0" y="0" width="14" height="14"></rect>
                <path d="M11.9583333,10.5 C12.4415825,10.5 12.8333333,10.8917508 12.8333333,11.375 C12.8333333,11.8582492 12.4415825,12.25 11.9583333,12.25 L2.04166667,12.25 C1.55841751,12.25 1.16666667,11.8582492 1.16666667,11.375 C1.16666667,10.8917508 1.55841751,10.5 2.04166667,10.5 L11.9583333,10.5 Z M11.9583333,6.41666667 C12.4415825,6.41666667 12.8333333,6.80841751 12.8333333,7.29166667 C12.8333333,7.77491582 12.4415825,8.16666667 11.9583333,8.16666667 L2.04166667,8.16666667 C1.55841751,8.16666667 1.16666667,7.77491582 1.16666667,7.29166667 C1.16666667,6.80841751 1.55841751,6.41666667 2.04166667,6.41666667 L11.9583333,6.41666667 Z M11.9583333,2.33333333 C12.4415825,2.33333333 12.8333333,2.72508418 12.8333333,3.20833333 C12.8333333,3.69158249 12.4415825,4.08333333 11.9583333,4.08333333 L2.04166667,4.08333333 C1.55841751,4.08333333 1.16666667,3.69158249 1.16666667,3.20833333 C1.16666667,2.72508418 1.55841751,2.33333333 2.04166667,2.33333333 L11.9583333,2.33333333 Z" id="形状结合" fill="#FFFFFF"></path>
            </g>
        </g>
    </g>
</svg>