<?xml version="1.0" encoding="UTF-8"?>
<svg width="56px" height="56px" viewBox="0 0 56 56" version="1.1" xmlns="http://www.w3.org/2000/svg" xmlns:xlink="http://www.w3.org/1999/xlink">
    <title>logo</title>
    <defs>
        <linearGradient x1="0%" y1="50%" x2="100%" y2="50%" id="linearGradient-1">
            <stop stop-color="#FF8E00" offset="0%"></stop>
            <stop stop-color="#FF5201" offset="100%"></stop>
        </linearGradient>
    </defs>
    <g id="页面-1" stroke="none" stroke-width="1" fill="none" fill-rule="evenodd">
        <g id="0首页【美衣网】" transform="translate(-360.000000, -64.000000)">
            <g id="nav2" transform="translate(0.000000, 40.000000)">
                <g id="logo" transform="translate(360.000000, 24.000000)">
                    <rect id="矩形" fill="url(#linearGradient-1)" x="0" y="0" width="56" height="56" rx="19"></rect>
                    <path d="M37.0715093,45.0473546 C33.9755654,43.4563102 33.4715746,47 28.0716724,47 C22.6717702,47 22.0957807,43.5286303 19.0718356,45.0473546 C15.9758916,46.638399 10,45.6982364 10,41.4313445 C10,34.9225263 16.4078838,29.3538708 20.0078186,26.6780233 C21.4477925,25.5932202 22.0957807,23.7852152 21.5917898,22.0495304 L18.7118421,11.3461405 C18.495846,10.5506183 18.9998369,9.75509611 19.7918225,9.5381355 L22.2397781,9.03189405 C22.8877664,8.88725367 23.5357546,9.24885466 23.8237494,9.82741626 C24.5437363,11.3461405 26.1277077,12.4309435 27.927675,12.4309436 C29.7276424,12.4309437 31.3116137,11.3461405 32.0316007,9.82741626 C32.3195955,9.24885466 32.9675837,8.88725367 33.6155719,9.03189405 L36.0635276,9.5381355 C36.8555132,9.68277588 37.3595041,10.5506183 37.1435079,11.3461405 L34.2635602,22.0495304 C34.1195628,22.628092 34.1195628,23.2066536 34.1915615,23.7852153 L30.4476294,24.7976981 C29.0796542,25.1592991 27.5676816,25.1592991 26.1997064,24.8700182 L25.0477272,24.5807375 C24.6877337,24.5084173 24.2557416,24.7253779 24.1837428,25.1592991 C24.1117441,25.5209001 24.3277402,25.9548213 24.7597325,26.0271415 L25.8397128,26.2441021 C26.6316985,26.3887425 27.4236841,26.533383 28.2156698,26.5333829 C29.0796542,26.5333829 29.9436385,26.4610627 30.7356241,26.2441021 L34.6235537,25.3039395 C34.6955524,25.3039395 34.6955524,25.3039395 34.6955524,25.2316193 C34.9835472,25.8101809 35.4155393,26.3164224 35.9915288,26.7503435 C39.5914636,29.3538708 45.9993475,34.9948465 45.9993475,41.5036647 C46.0713462,45.6982364 40.1674532,46.6383991 37.0715093,45.0473546 L37.0715093,45.0473546 Z" id="路径" fill="#FFFFFF" fill-rule="nonzero"></path>
                </g>
            </g>
        </g>
    </g>
</svg>