<?xml version="1.0" encoding="UTF-8"?>
<svg width="32px" height="32px" viewBox="0 0 32 32" version="1.1" xmlns="http://www.w3.org/2000/svg" xmlns:xlink="http://www.w3.org/1999/xlink">
    <title>tiexin</title>
    <g id="页面-1" stroke="none" stroke-width="1" fill="none" fill-rule="evenodd">
        <g id="0首页【美衣网】" transform="translate(-1387.000000, -2384.000000)">
            <g id="btm2" transform="translate(0.000000, 2225.000000)">
                <g id="tiexin" transform="translate(1388.000000, 160.000000)">
                    <circle id="椭圆形备份-2" stroke="#1E1E1E" stroke-width="0.5" cx="15" cy="15" r="15"></circle>
                    <path d="M16.4928643,7.66528667 C16.12383,7.88936931 13.6756023,9.28054906 11.974444,11.8668362 C11.8304306,12.0815821 11.5424038,12.1562763 11.3263837,12.0162247 C11.1013628,11.8668362 11.0383569,11.5587226 11.1823703,11.33464 C12.028449,10.0088177 12.9555353,9.04712964 13.7116056,8.39355526 C13.9006232,8.22549328 13.8826215,7.91737964 13.6756023,7.77732799 C13.6215972,7.73998088 13.5675922,7.70263378 13.5045864,7.66528667 C10.7773326,5.87262552 5.27782105,7.66528667 6.07889557,13.6781709 C6.75395837,18.7293672 10.4263,21.4370325 12.8475252,22.6974973 C13.2075587,22.8842329 14.0806399,23.2857143 14.9987253,23.2857143 C15.9528141,23.2857143 16.7628895,22.9029064 17.122923,22.7161709 C19.5441482,21.4650428 23.2434923,18.7480408 23.9185551,13.6781709 C24.7196296,7.67462345 19.4181365,5.86328874 16.4928643,7.66528667 Z" id="路径" fill="#000000" fill-rule="nonzero"></path>
                </g>
            </g>
        </g>
    </g>
</svg>