<?xml version="1.0" encoding="UTF-8"?>
<svg width="412px" height="214px" viewBox="0 0 412 214" version="1.1" xmlns="http://www.w3.org/2000/svg" xmlns:xlink="http://www.w3.org/1999/xlink">
    <title>BG_2</title>
    <defs>
        <rect id="path-1" x="0" y="0" width="412" height="214"></rect>
        <linearGradient x1="50%" y1="0%" x2="50%" y2="100%" id="linearGradient-3">
            <stop stop-color="#1139FF" offset="0%"></stop>
            <stop stop-color="#276BFF" stop-opacity="0" offset="100%"></stop>
        </linearGradient>
        <filter x="-1.5%" y="-3.4%" width="102.9%" height="106.9%" filterUnits="objectBoundingBox" id="filter-4">
            <feGaussianBlur stdDeviation="2" in="SourceGraphic"></feGaussianBlur>
        </filter>
        <linearGradient x1="93.1376352%" y1="37.0797794%" x2="53.9398406%" y2="57.5685142%" id="linearGradient-5">
            <stop stop-color="#276BFF" offset="0%"></stop>
            <stop stop-color="#1139FF" offset="100%"></stop>
        </linearGradient>
    </defs>
    <g id="页面-1" stroke="none" stroke-width="1" fill="none" fill-rule="evenodd">
        <g id="首页" transform="translate(-320.000000, -2441.000000)">
            <g id="BG_2" transform="translate(320.000000, 2441.000000)">
                <mask id="mask-2" fill="white">
                    <use xlink:href="#path-1"></use>
                </mask>
                <use id="矩形备份-17" fill="#1139FF" xlink:href="#path-1"></use>
                <path d="M0,51.8618739 C106.666667,125.287291 244,121.333333 412,40 C412,40 412,66.6666667 412,120 C412,182.666667 412,214 412,214 C412,214 274.666667,214 0,214 L0,51.8618739 Z" id="路径-7" fill="url(#linearGradient-3)" filter="url(#filter-4)" mask="url(#mask-2)"></path>
                <path d="M119.110569,180.787429 C65.3165503,182.769338 12.8425318,173.508723 -38.3114865,153.005584 C120.766923,161.645056 245.037419,137.309861 334.5,80 C334.5,80 318.20461,73.4888728 285.61383,60.4666185 L400.687467,45.4259446 L388.697529,150 L362.649472,107 C294.911474,165.380905 250.028317,201.047572 228,214 C205.971683,226.952428 179.488557,238.660546 148.550621,249.124354 L233.460459,169.564755 C211.021218,175.064629 172.904588,178.80552 119.110569,180.787429 Z" id="路径-6" fill="url(#linearGradient-5)" mask="url(#mask-2)"></path>
            </g>
        </g>
    </g>
</svg>