<?xml version="1.0" encoding="UTF-8"?>
<svg width="80px" height="80px" viewBox="0 0 80 80" version="1.1" xmlns="http://www.w3.org/2000/svg" xmlns:xlink="http://www.w3.org/1999/xlink">
    <title>dangjian_icon</title>
    <defs>
        <rect id="path-1" x="0" y="0" width="80" height="80"></rect>
        <path d="M14.6438081,37.3045396 L11.4336808,16.577138 C11.1606248,14.8149696 12.0869205,13.0848324 13.7049759,12.3353701 C21.4265689,8.75617346 30.0249102,9.23668809 39.5,13.776914 C48.6257018,18.1497219 58.42143,17.7301328 68.8871843,12.5181466 C70.8646864,11.5333721 73.2659985,12.3383975 74.2505583,14.3160065 C74.4624573,14.7416316 74.5967767,15.2016262 74.6470947,15.6744115 L79.6407471,62.3621936 C79.8563816,64.3893201 78.5127577,66.2541149 76.5216074,66.6912193 C69.4351329,68.2462789 61.9060564,67.3749538 53.9343777,64.0772441 C44.6447926,60.2343452 33.3019248,63.083413 19.9057744,72.6244474 L14.6438081,37.3045396 Z" id="path-3"></path>
        <filter x="-2.9%" y="-3.2%" width="105.8%" height="106.3%" filterUnits="objectBoundingBox" id="filter-4">
            <feGaussianBlur stdDeviation="2" in="SourceAlpha" result="shadowBlurInner1"></feGaussianBlur>
            <feOffset dx="0" dy="0" in="shadowBlurInner1" result="shadowOffsetInner1"></feOffset>
            <feComposite in="shadowOffsetInner1" in2="SourceAlpha" operator="arithmetic" k2="-1" k3="1" result="shadowInnerInner1"></feComposite>
            <feColorMatrix values="0 0 0 0 0.0666666667   0 0 0 0 0.223529412   0 0 0 0 1  0 0 0 1 0" type="matrix" in="shadowInnerInner1"></feColorMatrix>
        </filter>
        <path d="M19.2383379,2.27373675e-13 C25.9997274,2.27373675e-13 31.4809165,5.48118917 31.4809165,12.2425787 C31.4809165,17.5505255 28.1029448,22.0695048 23.3794676,23.7670501 C32.01421,25.6602645 38.4766758,33.354205 38.4766758,42.5575353 C38.4766758,53.1825759 -5.68434189e-14,53.1825759 -5.68434189e-14,42.5575353 C-5.68434189e-14,33.354205 6.46246574,25.6602645 15.09708,23.7660309 C10.3738206,22.0696246 6.99575923,17.5505959 6.99575923,12.2425787 C6.99575923,5.48118917 12.4769484,2.27373675e-13 19.2383379,2.27373675e-13 Z" id="path-5"></path>
        <filter x="-25.0%" y="-27.0%" width="150.0%" height="154.1%" filterUnits="objectBoundingBox" id="filter-7">
            <feGaussianBlur stdDeviation="1" in="SourceGraphic"></feGaussianBlur>
        </filter>
        <filter x="-44.4%" y="-48.7%" width="188.8%" height="199.1%" filterUnits="objectBoundingBox" id="filter-8">
            <feGaussianBlur stdDeviation="10" in="SourceGraphic"></feGaussianBlur>
        </filter>
    </defs>
    <g id="页面-1" stroke="none" stroke-width="1" fill="none" fill-rule="evenodd">
        <g id="首页" transform="translate(-757.000000, -2049.000000)">
            <g id="2" transform="translate(645.000000, 2009.000000)">
                <g id="dangjian_icon" transform="translate(112.000000, 40.000000)">
                    <mask id="mask-2" fill="white">
                        <use xlink:href="#path-1"></use>
                    </mask>
                    <g id="矩形"></g>
                    <g id="路径-14备份" mask="url(#mask-2)">
                        <use fill="#FFFFFF" fill-rule="evenodd" xlink:href="#path-3"></use>
                        <use fill="black" fill-opacity="1" filter="url(#filter-4)" xlink:href="#path-3"></use>
                    </g>
                    <polygon id="星形备份" fill="#FF9C00" mask="url(#mask-2)" points="52.9343777 43.3585972 46.1748473 46.9122926 47.4658028 39.3854449 41.9972278 34.0549018 49.5546125 32.9567495 52.9343777 26.1085972 56.3141429 32.9567495 63.8715277 34.0549018 58.4029527 39.3854449 59.6939081 46.9122926"></polygon>
                    <path d="M19.3296005,27.1544875 C26.09099,27.1544875 31.5721791,32.6356767 31.5721791,39.3970662 C31.5721791,44.705013 28.1942074,49.2239923 23.4707302,50.9215377 C32.1054726,52.814752 38.5679384,60.5086926 38.5679384,69.7120228 C38.5679384,80.3370635 0.0912625824,80.3370635 0.0912625824,69.7120228 C0.0912625824,60.5086926 6.55372832,52.814752 15.1883426,50.9205184 C10.4650831,49.2241121 7.08702181,44.7050834 7.08702181,39.3970662 C7.08702181,32.6356767 12.568211,27.1544875 19.3296005,27.1544875 Z" id="形状结合" fill="#637EFF" mask="url(#mask-2)"></path>
                    <g id="qi" mask="url(#mask-2)">
                        <g transform="translate(0.091263, 27.154488)">
                            <mask id="mask-6" fill="white">
                                <use xlink:href="#path-5"></use>
                            </mask>
                            <use id="形状结合" stroke="none" fill="#637EFF" fill-rule="evenodd" xlink:href="#path-5"></use>
                            <path d="M17.19075,32.9354615 C19.51215,32.9354615 21,34.7969615 21,37.3022615 C21,39.2464115 19.2408,41.3875115 15.77475,43.7933615 C15.3086763,44.1161321 14.6913237,44.1161321 14.22525,43.7933615 C10.7592,41.3875115 9,39.2464115 9,37.3022615 C9,34.7969615 10.48785,32.9354615 12.80925,32.9354615 C13.6476,32.9354615 14.21625,33.2284115 15,33.8930615 C15.7839,33.2285615 16.3524,32.9354615 17.19075,32.9354615 Z" id="路径" stroke="none" fill="#1139FF" fill-rule="nonzero" filter="url(#filter-7)" mask="url(#mask-6)"></path>
                            <path d="M14.5525455,10.1500521 L11.3424182,-10.5773495 C11.0693622,-12.3395179 11.9956579,-14.0696551 13.6137133,-14.8191174 C21.3353063,-18.3983141 29.9336477,-17.9177994 39.4087374,-13.3775735 C48.5344393,-9.00476557 58.3301674,-9.42435469 68.7959217,-14.6363409 C70.7734238,-15.6211154 73.174736,-14.81609 74.1592957,-12.838481 C74.3711947,-12.4128559 74.5055141,-11.9528614 74.5558321,-11.480076 L79.5494845,35.2077061 C79.765119,37.2348326 78.4214951,39.0996273 76.4303448,39.5367318 C69.3438703,41.0917914 61.8147938,40.2204663 53.8431151,36.9227566 C44.55353,33.0798577 33.2106622,35.9289254 19.8145118,45.4699599 L14.5525455,10.1500521 Z" id="1" stroke="#1139FF" stroke-width="2" fill="none" filter="url(#filter-8)" mask="url(#mask-6)"></path>
                        </g>
                    </g>
                    <path d="M15.5744973,3.4124412 C24.8746606,2.03791403 33.8925605,3.08565865 42.628197,6.55567505" id="路径-14" stroke="#FF9C00" stroke-width="2" stroke-linecap="round" mask="url(#mask-2)"></path>
                    <path d="M52.9343777,70.5645532 C62.003462,74.2523899 70.4270295,74.9390212 78.2050803,72.6244474" id="路径-15" stroke="#FF9C00" stroke-width="2" stroke-linecap="round" mask="url(#mask-2)"></path>
                </g>
            </g>
        </g>
    </g>
</svg>