<?xml version="1.0" encoding="UTF-8"?>
<svg width="80px" height="80px" viewBox="0 0 80 80" version="1.1" xmlns="http://www.w3.org/2000/svg" xmlns:xlink="http://www.w3.org/1999/xlink">
    <title>IP_icon</title>
    <defs>
        <rect id="path-1" x="0" y="0" width="18" height="33"></rect>
        <path d="M4,0 L10.9997873,0 L10.9997873,0 L11.8323012,8.18703174 L8,8.02620938 L8,21 C8,23.209139 6.209139,25 4,25 C1.790861,25 2.705415e-16,23.209139 0,21 L0,4 C-2.705415e-16,1.790861 1.790861,2.18216909e-15 4,0 Z" id="path-3"></path>
        <filter x="-4.0%" y="-4.0%" width="108.1%" height="108.1%" filterUnits="objectBoundingBox" id="filter-5">
            <feGaussianBlur stdDeviation="1" in="SourceGraphic"></feGaussianBlur>
        </filter>
        <polygon id="path-6" points="0 0 24.6276539 11.3844275 31 35 0 35"></polygon>
    </defs>
    <g id="页面-1" stroke="none" stroke-width="1" fill="none" fill-rule="evenodd">
        <g id="首页" transform="translate(-1244.000000, -2481.000000)">
            <g id="IP_icon" transform="translate(1244.000000, 2481.000000)">
                <rect id="矩形" x="0" y="0" width="80" height="80"></rect>
                <path d="M5.31212837,3.7587482 C6.17534067,3.74252827 7.22765912,3.96065776 8.4459603,4.37068747 C11.153545,5.28194831 14.6094807,7.13308595 18.5768279,9.74722945 C26.4953231,14.9648426 36.4020965,23.2058063 46.4244231,33.2281328 C56.4467496,43.2504594 64.6877133,53.1572328 69.9053265,61.075728 C72.51947,65.0430752 74.3706076,68.4990109 75.2818684,71.2065956 C75.6918981,72.4248968 75.9100276,73.4772152 75.8938077,74.3404275 C75.8821724,74.9596521 75.7583757,75.4722147 75.4166711,75.8139193 C75.0749666,76.1556239 74.5624039,76.2794205 73.9431794,76.2910559 C73.0799671,76.3072758 72.0276486,76.0891463 70.8093475,75.6791166 C68.1017628,74.7678557 64.6458271,72.9167181 60.6784799,70.3025746 C52.7599847,65.0849615 42.8532112,56.8439977 32.8308847,46.8216712 C22.8085582,36.7993447 14.5675944,26.8925712 9.3499813,18.974076 C6.7358378,15.0067288 4.88470016,11.5507931 3.97343932,8.84320845 C3.56340961,7.62490728 3.34528012,6.57258883 3.36150004,5.70937652 C3.37313539,5.09015197 3.49693205,4.57758935 3.83863663,4.23588478 C4.1803412,3.89418021 4.69290382,3.77038354 5.31212837,3.7587482 Z" id="椭圆形" stroke="#1139FF" stroke-width="2"></path>
                <path d="M73.9431794,3.7587482 C74.5624039,3.77038354 75.0749666,3.89418021 75.4166711,4.23588478 C75.7583757,4.57758935 75.8821724,5.09015197 75.8938077,5.70937652 C75.9100276,6.57258883 75.6918981,7.62490728 75.2818684,8.84320845 C74.3706076,11.5507931 72.51947,15.0067288 69.9053265,18.974076 C64.6877133,26.8925712 56.4467496,36.7993447 46.4244231,46.8216712 C36.4020965,56.8439977 26.4953231,65.0849615 18.5768279,70.3025746 C14.6094807,72.9167181 11.153545,74.7678557 8.4459603,75.6791166 C7.22765912,76.0891463 6.17534067,76.3072758 5.31212837,76.2910559 C4.69290382,76.2794205 4.1803412,76.1556239 3.83863663,75.8139193 C3.49693205,75.4722147 3.37313539,74.9596521 3.36150004,74.3404275 C3.34528012,73.4772152 3.56340961,72.4248968 3.97343932,71.2065956 C4.88470016,68.4990109 6.7358378,65.0430752 9.3499813,61.075728 C14.5675944,53.1572328 22.8085582,43.2504594 32.8308847,33.2281328 C42.8532112,23.2058063 52.7599847,14.9648426 60.6784799,9.74722945 C64.6458271,7.13308595 68.1017628,5.28194831 70.8093475,4.37068747 C72.0276486,3.96065776 73.0799671,3.74252827 73.9431794,3.7587482 Z" id="椭圆形" stroke="#1139FF" stroke-width="2"></path>
                <path d="M38,20 L42,20 L42,20 L42,57 C42,59.209139 40.209139,61 38,61 C35.790861,61 34,59.209139 34,57 L34,24 C34,21.790861 35.790861,20 38,20 Z" id="矩形备份-21" fill="#637EFF"></path>
                <rect id="矩形备份-22" fill="#637EFF" x="20" y="20" width="8" height="41" rx="4"></rect>
                <g id="编组-6" transform="translate(42.000000, 20.000000)">
                    <mask id="mask-2" fill="white">
                        <use xlink:href="#path-1"></use>
                    </mask>
                    <g id="矩形"></g>
                    <path d="M1,0 C9.836556,0 17,7.163444 17,16 C17,24.836556 9.836556,32 1,32 C-7.836556,32 -15,24.836556 -15,16 C-15,7.163444 -7.836556,0 1,0 Z M1,8 C-3.418278,8 -7,11.581722 -7,16 C-7,20.418278 -3.418278,24 1,24 C5.418278,24 9,20.418278 9,16 C9,11.581722 5.418278,8 1,8 Z" id="形状结合" fill="#637EFF" mask="url(#mask-2)"></path>
                </g>
                <g id="1" transform="translate(34.000000, 20.000000)">
                    <mask id="mask-4" fill="white">
                        <use xlink:href="#path-3"></use>
                    </mask>
                    <g id="形状结合"></g>
                    <path d="M-28.6878716,-16.2412518 C-27.8246593,-16.2574717 -26.7723409,-16.0393422 -25.5540397,-15.6293125 C-22.846455,-14.7180517 -19.3905193,-12.8669141 -15.4231721,-10.2527705 C-7.50467692,-5.03515743 2.40209655,3.20580632 12.4244231,13.2281328 C22.4467496,23.2504594 30.6877133,33.1572328 35.9053265,41.075728 C38.51947,45.0430752 40.3706076,48.4990109 41.2818684,51.2065956 C41.6918981,52.4248968 41.9100276,53.4772152 41.8938077,54.3404275 C41.8821724,54.9596521 41.7583757,55.4722147 41.4166711,55.8139193 C41.0749666,56.1556239 40.5624039,56.2794205 39.9431794,56.2910559 C39.0799671,56.3072758 38.0276486,56.0891463 36.8093475,55.6791166 C34.1017628,54.7678557 30.6458271,52.9167181 26.6784799,50.3025746 C18.7599847,45.0849615 8.85321121,36.8439977 -1.16911531,26.8216712 C-11.1914418,16.7993447 -19.4324056,6.89257123 -24.6500187,-1.02592397 C-27.2641622,-4.99327117 -29.1152998,-8.44920686 -30.0265607,-11.1567915 C-30.4365904,-12.3750927 -30.6547199,-13.4274112 -30.6385,-14.2906235 C-30.6268646,-14.909848 -30.5030679,-15.4224106 -30.1613634,-15.7641152 C-29.8196588,-16.1058198 -29.3070962,-16.2296165 -28.6878716,-16.2412518 Z" id="椭圆形" stroke="#1139FF" stroke-width="2" filter="url(#filter-5)" mask="url(#mask-4)"></path>
                </g>
                <g id="编组-7" transform="translate(15.000000, 23.000000)">
                    <mask id="mask-7" fill="white">
                        <use xlink:href="#path-6"></use>
                    </mask>
                    <g id="矩形"></g>
                    <path d="M-9.68787163,-19.2412518 C-8.82465933,-19.2574717 -7.77234088,-19.0393422 -6.5540397,-18.6293125 C-3.84645502,-17.7180517 -0.390519327,-15.8669141 3.57682787,-13.2527705 C11.4953231,-8.03515743 21.4020965,0.205806323 31.4244231,10.2281328 C41.4467496,20.2504594 49.6877133,30.1572328 54.9053265,38.075728 C57.51947,42.0430752 59.3706076,45.4990109 60.2818684,48.2065956 C60.6918981,49.4248968 60.9100276,50.4772152 60.8938077,51.3404275 C60.8821724,51.9596521 60.7583757,52.4722147 60.4166711,52.8139193 C60.0749666,53.1556239 59.5624039,53.2794205 58.9431794,53.2910559 C58.0799671,53.3072758 57.0276486,53.0891463 55.8093475,52.6791166 C53.1017628,51.7678557 49.6458271,49.9167181 45.6784799,47.3025746 C37.7599847,42.0849615 27.8532112,33.8439977 17.8308847,23.8216712 C7.80855817,13.7993447 -0.432405582,3.89257123 -5.6500187,-4.02592397 C-8.2641622,-7.99327117 -10.1152998,-11.4492069 -11.0265607,-14.1567915 C-11.4365904,-15.3750927 -11.6547199,-16.4274112 -11.6385,-17.2906235 C-11.6268646,-17.909848 -11.5030679,-18.4224106 -11.1613634,-18.7641152 C-10.8196588,-19.1058198 -10.3070962,-19.2296165 -9.68787163,-19.2412518 Z" id="椭圆形" stroke="#1139FF" stroke-width="2" mask="url(#mask-7)"></path>
                </g>
                <path d="M6.29486975,27.324574 C4.81147395,31.2671513 4,35.5388107 4,40 C4,43.88064 4.61401643,47.6178687 5.75019603,51.119833 M28.2432697,74.0365292 C31.9276642,75.3089533 35.8831308,76 40,76 C44.3240619,76 48.4700664,75.2376453 52.3109383,73.8400108 M74.285161,51.0102533 C75.3987167,47.5399467 76,43.840192 76,40 C76,35.4398636 75.1521306,31.0777578 73.6054371,27.0627276 M52.1976805,6.1189924 C48.388609,4.74745329 44.281593,4 40,4 C35.8303413,4 31.8262509,4.70888259 28.1016715,6.0127052" id="形状" stroke="#FF9C00" stroke-width="2" stroke-linecap="round"></path>
            </g>
        </g>
    </g>
</svg>