<?xml version="1.0" encoding="UTF-8"?>
<svg width="96px" height="134px" viewBox="0 0 96 134" version="1.1" xmlns="http://www.w3.org/2000/svg" xmlns:xlink="http://www.w3.org/1999/xlink">
    <title>qinzi_icon</title>
    <defs>
        <path d="M35.8970177,18.9920342 C38.345653,8.64568788 44.518973,17.095204 48.0884625,19.7507662 C48.6615052,20.2400404 49.3870852,20.5144195 50.1404877,20.5267422 C50.3979775,20.486076 50.6280882,20.3430343 50.7785125,20.1301323 C50.9195118,19.9231778 50.9635662,19.6651453 50.8992198,19.4231319 C50.6581633,18.784598 50.3639862,18.1674028 50.0197804,17.5780335 C46.0881688,9.78378589 39.6734341,1.04112326 27.6026968,0.00648871547 C10.4450058,-0.372877289 2.08170927,16.0088376 2.08170919,16.0088376 C-1.7119511,24.0617439 0.357318164,25.7171593 2.92666086,22.7684506 C11.6693235,12.4221043 14.6352761,12.8187142 14.6352761,15.7156911 C14.0489831,32.3388208 18.5841315,43.3059479 22.3260602,47.9962916 C22.6917732,48.4327158 23.2926685,48.5915732 23.8262804,48.3929015 C24.3597056,48.1946047 24.6973439,47.667045 24.6539881,47.0996083 C24.3881483,44.429661 24.2730063,41.7468522 24.3091098,39.063946 C24.2918355,38.8170851 24.2918355,38.5693187 24.3091098,38.3224578 C25.0161102,33.3562116 29.3788195,34.3391145 33.6035776,38.3224578 C38.5870677,43.0645332 40.8805079,45.6683637 44.3810217,47.15134 C45.0548673,47.5159774 45.805103,47.7168279 46.5709983,47.7376329 C47.6228768,47.7376329 47.5021694,46.4788275 47.01934,45.8925346 C36.224652,32.8216504 34.7589196,26.8035256 35.8970177,18.9920342 L35.8970177,18.9920342 Z" id="path-1"></path>
        <filter x="-18.8%" y="-11.5%" width="137.5%" height="123.1%" filterUnits="objectBoundingBox" id="filter-3">
            <feGaussianBlur stdDeviation="1" in="SourceGraphic"></feGaussianBlur>
        </filter>
        <path d="M70.0782962,53.6576285 C71.8983555,53.2825999 73.4938015,52.1974382 74.5113064,50.6424637 C75.5103175,49.1104373 75.8409076,47.2370936 75.4266243,45.4556623 C74.6000401,41.6492876 70.8889353,39.1964544 67.0631314,39.9278601 C63.276228,40.6816513 59.6508512,44.7377659 60.4764321,48.5246694 C61.302013,52.3115729 66.2913928,54.3755249 70.0782962,53.6576285 L70.0782962,53.6576285 Z" id="path-4"></path>
        <filter x="-13.1%" y="-14.3%" width="126.2%" height="128.6%" filterUnits="objectBoundingBox" id="filter-5">
            <feGaussianBlur stdDeviation="2" in="SourceAlpha" result="shadowBlurInner1"></feGaussianBlur>
            <feOffset dx="0" dy="0" in="shadowBlurInner1" result="shadowOffsetInner1"></feOffset>
            <feComposite in="shadowOffsetInner1" in2="SourceAlpha" operator="arithmetic" k2="-1" k3="1" result="shadowInnerInner1"></feComposite>
            <feColorMatrix values="0 0 0 0 0.0666666667   0 0 0 0 0.223529412   0 0 0 0 1  0 0 0 1 0" type="matrix" in="shadowInnerInner1"></feColorMatrix>
        </filter>
        <path d="M69.5166176,55.6507716 C59.3181282,56.8339298 53.2023674,55.1008531 49.7028857,55.5341223 C49.3628305,55.5750052 49.0770719,55.8088076 48.9696609,56.1340334 C48.8503549,56.449657 48.9074446,56.8048817 49.1196387,57.0672285 C52.0525377,60.216762 58.5849034,61.0666361 60.0846813,62.1831375 C62.2010345,63.7495721 60.9178912,66.0492315 61.7511012,70.96517 C62.4343333,74.8979209 63.3175358,76.3477061 64.3507161,77.3642222 C65.3838965,78.3807383 66.3837484,77.8808124 66.3837483,76.8143037 C66.3837483,73.3648146 67.866862,70.8485207 71.6496351,71.1318121 C75.3824156,71.7483874 76.6488946,74.8312641 77.6320823,77.0809309 C77.8161108,77.418264 78.1824908,77.6145389 78.5652774,77.5808569 C78.9596218,77.5570269 79.2980449,77.291597 79.4151515,76.9142889 C80.0400259,74.4241976 79.9534203,71.8087067 79.1651886,69.365407 C78.3986355,66.4825006 77.7320675,64.4661326 78.0653515,62.399772 C78.55172,60.4949923 79.689601,58.8205974 81.2815417,57.6671396 C85.8308679,54.6342555 87.2473248,53.2511271 87.8639002,52.0513048 C88.5304681,50.7181689 87.5472804,49.7183169 86.4141149,50.0849294 C83.0812752,51.2680875 77.1154922,54.7009123 69.5166176,55.6507716 Z" id="path-6"></path>
        <filter x="-5.1%" y="-7.2%" width="110.2%" height="114.3%" filterUnits="objectBoundingBox" id="filter-7">
            <feGaussianBlur stdDeviation="2" in="SourceAlpha" result="shadowBlurInner1"></feGaussianBlur>
            <feOffset dx="0" dy="0" in="shadowBlurInner1" result="shadowOffsetInner1"></feOffset>
            <feComposite in="shadowOffsetInner1" in2="SourceAlpha" operator="arithmetic" k2="-1" k3="1" result="shadowInnerInner1"></feComposite>
            <feColorMatrix values="0 0 0 0 0.0666666667   0 0 0 0 0.223529412   0 0 0 0 1  0 0 0 1 0" type="matrix" in="shadowInnerInner1"></feColorMatrix>
        </filter>
    </defs>
    <g id="页面-1" stroke="none" stroke-width="1" fill="none" fill-rule="evenodd">
        <g id="首页" transform="translate(-1074.000000, -2049.000000)">
            <g id="3" transform="translate(970.000000, 2009.000000)">
                <g id="qinzi_icon" transform="translate(104.000000, 40.000000)">
                    <rect id="矩形" x="8" y="0" width="80" height="80"></rect>
                    <g>
                        <rect id="矩形" x="8" y="0" width="80" height="80"></rect>
                        <path d="M37.3317203,27.03131 C42.3538262,27.7407525 46.0503948,24.5295918 47.0585499,18.3126356 C47.3764774,15.8351272 46.6303119,13.3388644 45.0049006,11.4422454 C43.3644127,9.50374179 41.0049497,8.31726898 38.4705621,8.15640664 C33.2751298,7.75860931 28.7317721,11.6267157 28.2956637,16.8190725 C27.8475948,22.0465432 32.1975973,26.303198 37.3317203,27.03131 Z M43.977378,49.0936763 C46.4260133,38.74733 52.5993333,47.1968461 56.1688228,49.8524083 C56.7418655,50.3416826 57.4674455,50.6160616 58.220848,50.6283843 C58.4783378,50.5877181 58.7084485,50.4446764 58.8588728,50.2317744 C58.9998721,50.02482 59.0439265,49.7667875 58.9795801,49.524774 C58.7385236,48.8862402 58.4443464,48.2690449 58.1001407,47.6796756 C54.1685291,39.885428 47.7537944,31.1427654 35.6830571,30.1081309 C18.5253661,29.7287648 10.1620696,46.1104798 10.1620695,46.1104798 C6.3684092,54.163386 8.43767846,55.8188014 11.0070212,52.8700927 C19.7496838,42.5237464 22.7156364,42.9203564 22.7156364,45.8173333 C22.1293434,62.440463 26.6644918,73.40759 30.4064205,78.0979337 C30.7721335,78.5343579 31.3730288,78.6932153 31.9066407,78.4945437 C32.4400659,78.2962468 32.7777042,77.7686871 32.7343484,77.2012504 C32.4685086,74.5313031 32.3533666,71.8484944 32.3894701,69.1655881 C32.3721958,68.9187272 32.3721958,68.6709608 32.3894701,68.4240999 C33.0964705,63.4578537 37.4591798,64.4407566 41.6839379,68.4240999 C46.667428,73.1661753 48.9608682,75.7700058 52.461382,77.2529821 C53.1352276,77.6176196 53.8854633,77.8184701 54.6513586,77.8392751 C55.7032371,77.8392751 55.5825297,76.5804696 55.0997003,75.9941767 C44.3050123,62.9232925 42.8392799,56.9051678 43.977378,49.0936763 L43.977378,49.0936763 Z" id="形状" fill="#637EFF" fill-rule="nonzero"></path>
                        <g id="1" transform="translate(8.080360, 30.101642)">
                            <mask id="mask-2" fill="white">
                                <use xlink:href="#path-1"></use>
                            </mask>
                            <g id="路径"></g>
                            <ellipse id="椭圆形" fill="#1139FF" filter="url(#filter-3)" mask="url(#mask-2)" cx="38.9196397" cy="23.8983579" rx="8" ry="13"></ellipse>
                        </g>
                        <g id="路径" fill-rule="nonzero">
                            <use fill="#FFFFFF" xlink:href="#path-4"></use>
                            <use fill="black" fill-opacity="1" filter="url(#filter-5)" xlink:href="#path-4"></use>
                        </g>
                        <g id="路径" fill-rule="nonzero">
                            <use fill="#FFFFFF" xlink:href="#path-6"></use>
                            <use fill="black" fill-opacity="1" filter="url(#filter-7)" xlink:href="#path-6"></use>
                        </g>
                        <path d="M71.3281927,12.5364188 C75.9291748,12.5364188 78.8780726,16.2258856 78.8780726,21.1913549 C78.8780726,25.0446329 75.3913629,29.2882629 68.5217006,34.0566238 C67.5979492,34.6963505 66.3743649,34.6963505 65.4506135,34.0566238 C58.5809511,29.2882629 55.0942415,25.0446329 55.0942415,21.1913549 C55.0942415,16.2258856 58.0431393,12.5364188 62.6441214,12.5364188 C64.3057193,12.5364188 65.4327756,13.1170416 66.986157,14.4343685 C68.5398358,13.1173389 69.6665948,12.5364188 71.3281927,12.5364188 Z" id="路径" fill="#FF9C00" fill-rule="nonzero"></path>
                        <text id="亲子活动" font-family="PingFangSC-Semibold, PingFang SC" font-size="24" font-weight="500" line-spacing="24" fill="#1139FF">
                            <tspan x="0" y="134.246512">亲子活动</tspan>
                        </text>
                        <line x1="51.1604351" y1="2.51356418" x2="55.0180442" y2="8.24398095" id="路径-16" stroke="#8B9FFF" stroke-width="2" stroke-linecap="round"></line>
                        <line x1="69.9235828" y1="2.51356418" x2="68.3743662" y2="8.24398095" id="路径-17" stroke="#8B9FFF" stroke-width="2" stroke-linecap="round"></line>
                        <line x1="86.2550358" y1="8.24398095" x2="79.6572072" y2="12.5364188" id="路径-18" stroke="#8B9FFF" stroke-width="2" stroke-linecap="round"></line>
                        <path d="M23.5094085,4.10483554 C15.8502309,7.01900689 12.266298,12.2742803 12.7576097,19.8706557" id="路径-19" stroke="#8B9FFF" stroke-width="2" stroke-linecap="round"></path>
                    </g>
                </g>
            </g>
        </g>
    </g>
</svg>