<?xml version="1.0" encoding="UTF-8"?>
<svg width="22px" height="20.3907868px" viewBox="0 0 22 20.3907868" version="1.1" xmlns="http://www.w3.org/2000/svg" xmlns:xlink="http://www.w3.org/1999/xlink">
    <title>bilibili</title>
    <g id="页面-1" stroke="none" stroke-width="1" fill="none" fill-rule="evenodd">
        <g id="BSV首页h5" transform="translate(-212.000000, -3821.000000)">
            <g id="底部" transform="translate(0.000000, 3740.000000)">
                <g id="icon" transform="translate(68.000000, 76.000000)">
                    <g id="bilibili" transform="translate(140.000000, 0.000000)">
                        <rect id="矩形" x="0" y="0" width="30" height="30"></rect>
                        <path d="M9.6892,5.32348678 L13.2554,8.89078677 L16.7435,8.89078677 L20.3108,5.32458678 C20.7406156,4.89477118 21.4374844,4.89477118 21.8673,5.32458678 C22.2971156,5.75440239 22.2971156,6.45127117 21.8673,6.88108677 L19.8554,8.89078677 L22.15,8.89078677 C23.1710835,8.89078677 24.150346,9.2964106 24.8723611,10.0184257 C25.5943762,10.7404407 26,11.7197033 26,12.7407868 L26,21.5407868 C26,22.5618703 25.5943762,23.5411328 24.8723611,24.2631479 C24.150346,24.9851629 23.1710835,25.3907868 22.15,25.3907868 L7.85000001,25.3907868 C6.82891653,25.3907868 5.84965396,24.9851629 5.1276389,24.2631479 C4.40562384,23.5411328 4,22.5618703 4,21.5407868 L4,12.7407868 C4,11.7197033 4.40562384,10.7404407 5.1276389,10.0184257 C5.84965396,9.2964106 6.82891653,8.89078677 7.85000001,8.89078677 L10.1435,8.89078677 L8.13270001,6.87888678 C7.85465806,6.60084484 7.74607031,6.19558988 7.84784073,5.81577751 C7.94961114,5.43596515 8.24627836,5.13929792 8.62609072,5.0375275 C9.00590308,4.93575709 9.41115805,5.04434482 9.6892,5.32238677 L9.6892,5.32348678 Z M22.15,11.0907868 L7.85000001,11.0907868 C7.00011591,11.0907868 6.28928887,11.736428 6.2077,12.5823868 L6.20000002,12.7407868 L6.20000002,21.5407868 C6.20000002,22.3906709 6.84564125,23.1014979 7.69160001,23.1830868 L7.85000001,23.1907868 L22.15,23.1907868 C22.9998841,23.1907868 23.7107111,22.5451456 23.7923,21.6991868 L23.8,21.5407868 L23.8,12.7407868 C23.8,11.8295169 23.0612698,11.0907868 22.15,11.0907868 Z M10.6,14.3907868 C11.2075132,14.3907868 11.7,14.8832735 11.7,15.4907868 L11.7,17.6907868 C11.699907,18.2982342 11.2074475,18.7906184 10.6,18.7906184 C9.99255254,18.7906184 9.50009301,18.2982342 9.50000001,17.6907868 L9.50000001,15.4907868 C9.50000001,14.8832735 9.99248678,14.3907868 10.6,14.3907868 L10.6,14.3907868 Z M19.4,14.3907868 C20.0075132,14.3907868 20.5,14.8832735 20.5,15.4907868 L20.5,17.6907868 C20.499907,18.2982342 20.0074475,18.7906184 19.4,18.7906184 C18.7925525,18.7906184 18.300093,18.2982342 18.3,17.6907868 L18.3,15.4907868 C18.3,14.8832735 18.7924868,14.3907868 19.4,14.3907868 L19.4,14.3907868 Z" id="形状" fill="#FFFFFF" fill-rule="nonzero"></path>
                    </g>
                </g>
            </g>
        </g>
    </g>
</svg>