<?xml version="1.0" encoding="UTF-8"?>
<svg width="32.6027397px" height="34px" viewBox="0 0 32.6027397 34" version="1.1" xmlns="http://www.w3.org/2000/svg" xmlns:xlink="http://www.w3.org/1999/xlink">
    <title>zy</title>
    <defs>
        <radialGradient cx="70.6448581%" cy="52.1445099%" fx="70.6448581%" fy="52.1445099%" r="84.1251549%" gradientTransform="translate(0.706449,0.521445),scale(1.000000,0.958904),rotate(90.000000),translate(-0.706449,-0.521445)" id="radialGradient-1">
            <stop stop-color="#448CFF" offset="0%"></stop>
            <stop stop-color="#002247" offset="100%"></stop>
        </radialGradient>
    </defs>
    <g id="页面-1" stroke="none" stroke-width="1" fill="none" fill-rule="evenodd">
        <g id="BSV首页" transform="translate(-782.676562, -487.000000)">
            <g id="企业优势" transform="translate(360.000000, 460.000000)">
                <g id="zy" transform="translate(418.676562, 24.000000)">
                    <rect id="矩形备份-3" x="0" y="0" width="40" height="40"></rect>
                    <g id="专业" transform="translate(4.000000, 3.000000)">
                        <path d="M4.45229224,27.9317763 C3.25608219,27.9317763 2.32240183,28.7925274 2.32240183,29.805774 C2.32240183,30.8088904 3.23749087,31.6625776 4.41646804,31.6795388 L4.45229224,31.6797717 L31.4415388,31.6797717 C32.0828425,31.6797717 32.6027397,32.1992032 32.6027397,32.8398858 C32.6027397,33.4714475 32.0975913,33.9851347 31.4689406,34 L31.4415388,34 L4.45229224,34 C2.0132968,34 0,32.1439338 0,29.805774 C0,28.7803402 0.38723516,27.8476301 1.02780137,27.1235388 C0.396550228,26.5522146 0,25.7265502 0,24.8083562 L0,3.12334247 C0,1.39842466 1.39970548,0 3.12629224,0 L7.77105708,0 L7.77105708,10.9448174 L7.77136758,10.9697352 L7.77222146,10.9941872 C7.80994749,11.7882192 8.75434018,12.2030502 9.37029909,11.6854429 L9.3888516,11.6694521 L11.9245685,9.43628082 L14.4602854,11.6694521 L14.479226,11.6857534 C15.1015114,12.2081735 16.0586735,11.7794087 16.0777694,10.9695023 L16.0780799,10.9448562 L16.0780411,0 L28.3152466,0 C30.0418721,0 31.4415388,1.39838584 31.4415388,3.12334247 L31.4415388,24.8084338 C31.4415388,26.5333904 30.0418721,27.9317763 28.3152466,27.9317763 L4.45229224,27.9317763 Z" id="形状" fill="url(#radialGradient-1)"></path>
                        <path d="M15.0061872,0 L15.0061872,10.7086804 L12.8247534,8.6275 L12.797468,8.60211644 L12.7819817,8.5883379 C12.2739224,8.14206849 11.5390799,8.15041324 11.0394429,8.61333333 L11.0243836,8.6275 L8.84294977,10.7085639 L8.84294977,0 L15.0061872,0 Z" id="路径" fill="#44BAFA"></path>
                    </g>
                </g>
            </g>
        </g>
    </g>
</svg>